<?xml version="1.0" encoding="UTF-8" standalone="no"?>
<svg
   width="18px"
   height="20px"
   viewBox="0 0 18 20"
   version="1.1"
   id="svg19"
   sodipodi:docname="back.svg"
   inkscape:version="1.1 (c68e22c387, 2021-05-23)"
   xmlns:inkscape="http://www.inkscape.org/namespaces/inkscape"
   xmlns:sodipodi="http://sodipodi.sourceforge.net/DTD/sodipodi-0.dtd"
   xmlns="http://www.w3.org/2000/svg"
   xmlns:svg="http://www.w3.org/2000/svg">
  <sodipodi:namedview
     id="namedview21"
     pagecolor="#ffffff"
     bordercolor="#666666"
     borderopacity="1.0"
     inkscape:pageshadow="2"
     inkscape:pageopacity="0.0"
     inkscape:pagecheckerboard="0"
     showgrid="false"
     inkscape:zoom="43.65"
     inkscape:cx="8.9919817"
     inkscape:cy="10"
     inkscape:window-width="2560"
     inkscape:window-height="1377"
     inkscape:window-x="-8"
     inkscape:window-y="-8"
     inkscape:window-maximized="1"
     inkscape:current-layer="svg19" />
  <!-- Generator: Sketch 41.2 (35397) - http://www.bohemiancoding.com/sketch -->
  <title
     id="title2">ic_next</title>
  <desc
     id="desc4">Created with Sketch.</desc>
  <defs
     id="defs6" />
  <path
     style="fill:#cccccc;stroke-width:0.0154547"
     d="m 8.8249252,15.000644 c 0.4390195,0.0014 0.7954985,-0.392758 0.6825135,-0.752559 C 9.4570677,14.072029 9.2694637,13.956309 9.1401241,13.821003 7.8865094,12.706442 6.6085666,11.611689 5.3442329,10.505865 5.1317007,10.320892 4.9191725,10.13592 4.7066404,9.950947 c 3.2653946,0.03796 6.5306826,0.08941 9.7962016,0.114115 0.208859,0.0089 0.434233,0.0036 0.604316,-0.113707 C 15.293145,9.833086 15.419126,9.638612 15.391362,9.437742 15.407742,9.123584 15.053471,8.836509 14.684807,8.849591 12.156345,8.799101 9.6273217,8.778081 7.0985829,8.743183 6.3064489,8.733283 5.514316,8.723273 4.722181,8.713363 6.2105036,7.4776151 7.7103702,6.2518182 9.1901057,5.0087161 9.3385487,4.8668558 9.5320167,4.7458205 9.6212257,4.5677305 9.7611277,4.2156164 9.4380757,3.7988853 9.0003297,3.7691565 8.7882293,3.7520319 8.5692463,3.8146973 8.4302282,3.9539797 7.0650003,5.0501851 5.7266874,6.1702202 4.3776547,7.2807 3.7023119,7.8438846 3.0166888,8.399072 2.3521683,8.971073 2.1707495,9.207319 2.2013369,9.56412 2.4679347,9.74883 c 1.8165044,1.594646 3.6439696,3.180307 5.4777685,4.760613 0.1798964,0.143568 0.3401573,0.309204 0.5429359,0.429819 0.1053262,0.04035 0.2205458,0.06364 0.3362861,0.06138 z"
     id="path911" />
</svg>
