<?xml version="1.0" encoding="UTF-8" standalone="no"?>
<svg
   width="24"
   height="24"
   viewBox="0 0 24 24"
   fill="none"
   version="1.1"
   id="svg4"
   sodipodi:docname="clone.svg"
   inkscape:version="1.1 (c68e22c387, 2021-05-23)"
   xmlns:inkscape="http://www.inkscape.org/namespaces/inkscape"
   xmlns:sodipodi="http://sodipodi.sourceforge.net/DTD/sodipodi-0.dtd"
   xmlns="http://www.w3.org/2000/svg"
   xmlns:svg="http://www.w3.org/2000/svg">
  <defs
     id="defs8" />
  <sodipodi:namedview
     id="namedview6"
     pagecolor="#ffffff"
     bordercolor="#666666"
     borderopacity="1.0"
     inkscape:pageshadow="2"
     inkscape:pageopacity="0.0"
     inkscape:pagecheckerboard="0"
     showgrid="false"
     inkscape:zoom="36.375"
     inkscape:cx="12"
     inkscape:cy="12"
     inkscape:window-width="2560"
     inkscape:window-height="1377"
     inkscape:window-x="-8"
     inkscape:window-y="-8"
     inkscape:window-maximized="1"
     inkscape:current-layer="svg4" />
  <path
     d="m 18.870561,22.676976 h -6.953036 c -0.921972,0 -1.806282,-0.366792 -2.4582681,-1.019614 C 8.807282,21.00454 8.441008,20.119064 8.441008,19.195877 v -3.4811 H 4.5785967 C 3.7591931,15.713848 2.973616,15.387553 2.394208,14.80737 1.8148115,14.227187 1.488888,13.440574 1.4879725,12.620079 V 4.8850756 C 1.488888,4.0645921 1.8148115,3.2779795 2.394208,2.6978078 2.973616,2.1176477 3.7591931,1.7912947 4.5785967,1.790378 h 7.7248223 c 0.819414,9.167e-4 1.604992,0.3272697 2.184412,0.9074298 0.57942,0.5801717 0.905285,1.3667843 0.906212,2.1872678 v 3.8675018 h 3.476518 c 0.921972,0 1.806283,0.3667568 2.458245,1.019591 0.651964,0.6528456 1.018273,1.5383206 1.018273,2.4615086 v 6.9622 c 0,0.923187 -0.366309,1.808663 -1.018273,2.461485 -0.651962,0.652822 -1.536273,1.019614 -2.458245,1.019614 z M 4.5785967,4.1111111 C 4.3736908,4.1114128 4.1772676,4.1930562 4.0323779,4.3381368 3.8874882,4.4832174 3.8059523,4.6798996 3.805651,4.8850756 v 7.7350034 c 3.013e-4,0.205153 0.081837,0.401835 0.2267269,0.546881 0.1448897,0.145161 0.3413129,0.226735 0.5462188,0.227083 H 8.441008 v -1.160366 c 0,-0.923188 0.366274,-1.808663 1.0182489,-2.4615086 0.6519861,-0.6528342 1.5362961,-1.019591 2.4582681,-1.019591 h 1.158839 V 4.8850756 C 13.076017,4.6798996 12.99455,4.4832174 12.84958,4.3381368 12.704725,4.1930562 12.508302,4.1114128 12.303419,4.1111111 Z"
     fill="#000000"
     id="path2"
     style="fill:#00b9ff;fill-opacity:0.60240966;stroke-width:1.1596" />
</svg>
