<?xml version="1.0" encoding="UTF-8" standalone="no"?>
<svg
   enable-background="new 0 0 512 512"
   id="Layer_1"
   version="1.1"
   viewBox="0 0 512.02277 512.00323"
   xml:space="preserve"
   sodipodi:docname="delete.svg"
   width="512.02277"
   height="512.00323"
   inkscape:version="1.1 (c68e22c387, 2021-05-23)"
   xmlns:inkscape="http://www.inkscape.org/namespaces/inkscape"
   xmlns:sodipodi="http://sodipodi.sourceforge.net/DTD/sodipodi-0.dtd"
   xmlns="http://www.w3.org/2000/svg"
   xmlns:svg="http://www.w3.org/2000/svg"><defs
     id="defs21" /><sodipodi:namedview
     id="namedview19"
     pagecolor="#ffffff"
     bordercolor="#666666"
     borderopacity="1.0"
     inkscape:pageshadow="2"
     inkscape:pageopacity="0.0"
     inkscape:pagecheckerboard="0"
     showgrid="false"
     inkscape:zoom="1.1416016"
     inkscape:cx="222.93241"
     inkscape:cy="257.09494"
     inkscape:window-width="2560"
     inkscape:window-height="1377"
     inkscape:window-x="-8"
     inkscape:window-y="-8"
     inkscape:window-maximized="1"
     inkscape:current-layer="Layer_1" /><path
     d="m 96.037818,418.43331 c -88.3401318,-89.70796 -88.3401318,-235.16371 0,-324.873469 88.368412,-89.7079613 231.578922,-89.7079613 319.946452,0 88.34101,89.708859 88.34101,235.165509 0,324.873469 -88.36753,89.72143 -231.57804,89.72143 -319.946452,0 z M 375.99748,134.16577 c -66.27587,-67.287699 -173.69701,-67.287699 -239.94548,0 -66.275864,67.2877 -66.275864,176.37391 0,243.66161 66.24847,67.2886 173.66961,67.2886 239.94548,0 66.25024,-67.28949 66.25024,-176.37391 0,-243.66161 z m -179.96574,223.3591 -39.98679,-40.6194 59.97975,-60.90934 -59.97975,-60.90845 39.98679,-40.62029 59.97975,60.92281 59.98062,-60.92281 39.98591,40.62029 -59.97975,60.90845 59.97975,60.90934 -39.98591,40.6194 -59.98062,-60.92281 z"
     id="path16"
     style="stroke-width:0.890481" /><path
     style="fill:#a0a0a0;stroke:none;stroke-width:0.390014"
     d="m 250.77642,485.44022 c -10.36786,-0.20638 -23.25325,-1.51683 -34.25208,-3.48348 C 160.24037,471.89287 109.46943,440.10719 75.011772,393.36132 52.45437,362.75955 37.752126,326.75273 32.324613,288.8175 c -1.68653,-11.78789 -2.122187,-18.52485 -2.122187,-32.81733 0,-21.40905 1.826464,-36.59627 6.806319,-56.59516 3.887408,-15.61167 8.766757,-29.0614 15.969194,-44.01845 14.300167,-29.69665 33.808993,-54.91622 58.792601,-76.002706 22.99003,-19.403877 50.04432,-34.221405 78.41624,-42.948245 12.37494,-3.806374 26.68415,-6.838397 39.49655,-8.369045 16.57585,-1.980254 36.01631,-1.972871 52.8295,0.02006 83.84529,9.938511 155.4981,67.037559 185.21432,147.594516 19.04819,51.63726 19.04164,108.86469 -0.0182,160.692 -13.93185,37.88308 -37.57396,71.35317 -68.73741,97.31144 -41.55207,34.61159 -93.74506,52.83947 -148.19512,51.75564 z m 18.65309,-57.51373 c 23.07054,-1.92632 45.77618,-8.55424 65.52578,-19.12741 47.45573,-25.40597 80.39981,-71.97018 88.77956,-125.48389 1.50946,-9.63949 1.92818,-15.50259 1.93674,-27.11851 0.0155,-20.82505 -2.61377,-37.16026 -9.0895,-56.47515 -4.71113,-14.05169 -10.62825,-26.17208 -19.14979,-39.22569 -27.6988,-42.42999 -71.17612,-69.467564 -122.07951,-75.918539 -8.78047,-1.112747 -31.10814,-1.011218 -39.97898,0.181792 -38.7973,5.217732 -72.23939,21.744437 -99.17513,49.011267 -28.08153,28.42669 -44.698885,63.83525 -49.199869,104.83594 -0.909283,8.2829 -0.909283,26.50483 0,34.78774 5.204409,47.40841 27.047449,88.05001 63.150009,117.49818 25.86958,21.10132 58.01485,34.06904 91.72594,37.00314 5.65094,0.49183 21.81823,0.51011 27.55475,0.031 z"
     id="path140" /><path
     style="fill:#a0a0a0;stroke:none;stroke-width:0.390014"
     d="m 176.17535,336.86323 -19.64008,-19.94706 29.80102,-30.26053 c 16.39056,-16.6433 29.80102,-30.43826 29.80102,-30.65547 0,-0.21722 -13.41047,-14.01219 -29.80103,-30.65548 l -29.80102,-30.26055 19.83502,-20.15298 19.83502,-20.15298 29.90921,30.55457 29.9092,30.55456 29.98333,-30.44569 29.98333,-30.44568 19.73899,20.04172 19.73898,20.04172 -29.8015,30.26483 c -16.39082,16.64565 -29.8015,30.44084 -29.8015,30.65596 0,0.21512 13.41068,14.0103 29.8015,30.65595 l 29.8015,30.26483 -19.73898,20.04172 -19.73899,20.04172 -29.99452,-30.45704 -29.99453,-30.45705 -29.89894,30.36 c -16.44442,16.69799 -29.98624,30.35998 -30.09295,30.35998 -0.1067,0 -9.03204,-8.97617 -19.83408,-19.94705 z"
     id="path179" /><path
     style="fill:#cccccc;stroke-width:0.875962"
     d="m 245.51582,27.591103 c -7.46385,-0.222955 -14.71587,0.201276 -21.91617,1.851154 -73.90653,10.49214 -140.627902,60.745932 -171.136008,128.874253 -11.209874,22.82364 -17.819789,47.84829 -20.63644,73.06072 -1.675734,27.49565 -1.621105,55.5314 6.10809,82.21338 16.83458,68.54478 67.976838,127.40663 133.123108,154.30502 10.36803,4.60931 21.51466,7.35525 32.07077,11.20444 1.40235,1.43734 5.15186,0.0711 7.30334,1.17969 5.57208,0.61679 10.59678,3.31709 16.2005,2.6766 2.42263,1.9196 6.50768,-0.32615 9.08982,1.50898 9.02939,-0.15011 17.89259,1.5528 26.95132,0.3743 38.81566,-1.1576 77.09881,-12.78223 110.07459,-33.26421 57.03252,-34.40431 96.45111,-95.30337 106.13405,-161.03138 3.05028,-18.71827 3.44176,-37.93613 1.92472,-56.75279 -2.88646,-20.86849 -7.08607,-41.69535 -15.04785,-61.3037 C 451.76299,134.73178 426.54325,101.87381 395.50289,76.48513 361.96798,48.820942 319.70889,32.010492 276.50757,28.01467 266.18606,27.554661 255.84543,27.601665 245.51582,27.591103 Z m 12.37297,55.76732 c 18.74037,0.09513 37.3989,3.286896 54.97176,9.967494 1.79205,1.836092 5.26774,0.835221 7.61168,2.738983 63.96455,25.49605 108.19724,93.35531 105.14107,162.22072 -0.54697,7.81237 0.58369,16.29452 -1.55514,23.72121 -0.85134,1.94271 0.69938,4.94805 -1.51926,5.87169 0.61696,8.54149 -3.62835,16.89108 -5.9063,25.04973 -18.26885,55.17079 -66.72612,100.11566 -124.0167,111.54393 -2.08918,-1.00761 -1.9175,2.39456 -4.426,0.9598 -12.2086,3.10454 -25.60872,2.84985 -38.3625,2.73024 -14.24892,-0.14199 -28.93729,-1.8142 -42.22433,-6.87053 -0.8036,-0.85959 -2.64195,0.43696 -3.01454,-1.22669 -1.56571,0.70192 -2.13181,-0.36414 -2.89307,-1.03508 -8.96272,-1.10756 -17.17195,-6.48183 -25.3429,-10.28765 -52.41122,-27.40859 -87.401238,-83.90455 -90.08602,-142.79962 -0.582472,-9.51664 -0.721082,-19.16564 0.576913,-28.50554 -0.310073,-3.14499 1.841618,-5.25029 1.071001,-8.42771 8.617418,-57.12499 47.479676,-109.44464 101.036776,-131.869968 4.56317,-0.954329 8.52023,-4.230642 13.35648,-5.129968 17.87394,-6.205599 36.68602,-8.937196 55.58108,-8.651041 z"
     id="path170" /><path
     style="fill:#cccccc;stroke-width:0.875962"
     d="M 250.17621,28.049614 C 193.48169,28.105037 138.42034,53.816966 98.285283,93.190462 55.182916,136.6963 29.381242,197.82774 31.615055,259.34473 c -0.493536,56.23026 22.523031,111.6864 60.583402,152.76304 36.141293,39.05305 86.422583,64.68954 139.153473,71.40777 28.3675,1.29363 57.3616,1.03749 84.7182,-7.51898 56.04379,-16.00592 105.50415,-54.1686 134.14911,-105.07096 37.99995,-64.86193 40.90604,-148.66913 7.35194,-215.9666 C 444.55223,127.50564 425.33491,103.40699 402.60905,83.356712 361.99131,46.789563 307.1004,26.172208 252.37127,28.039148 c -0.73169,0.0035 -1.46337,0.007 -2.19506,0.01047 z m 14.04961,55.293411 c 48.04973,1.8145 94.75452,25.757865 124.33362,63.692045 19.81847,25.31987 33.62428,56.13601 36.43741,88.3294 0.22902,24.34332 2.06964,49.46076 -6.39838,72.7888 -17.23245,57.00343 -65.92794,104.00848 -124.53518,116.44039 -18.57871,5.07031 -38.15161,3.29113 -57.20345,3.34406 -23.72957,-2.49292 -46.76549,-10.8896 -67.43283,-22.69026 C 124.09659,378.45152 92.674599,329.36202 86.864141,277.07779 84.297614,248.96191 86.514337,220.09801 97.003435,193.66445 116.63636,140.19021 164.56491,98.156028 220.46591,86.612999 c 14.34097,-3.07609 29.14763,-3.349531 43.75991,-3.269974 z"
     id="path209" /><path
     style="fill:#cccccc;stroke-width:0.875962"
     d="M 249.70572,28.046192 C 213.53687,27.832063 177.8791,39.099665 146.49273,56.648416 88.657503,89.032155 47.187615,148.0745 35.041915,213.1035 c -4.725392,26.76363 -4.320646,54.35016 -0.938617,81.24977 10.92643,64.65496 50.587249,124.04947 107.094302,157.62789 28.44197,16.79535 60.3575,28.6101 93.35329,31.75536 36.85966,2.52865 74.5938,-2.16639 108.50251,-17.36497 62.50722,-26.10001 110.78515,-82.20723 129.09096,-147.21395 8.41296,-28.11972 9.92737,-57.86246 7.95964,-86.99906 -5.8565,-48.01739 -25.68323,-94.56211 -58.5459,-130.32757 -36.20749,-40.465704 -87.62736,-67.679881 -141.83969,-72.790942 -9.98477,-0.74154 -20.00167,-1.024267 -30.01269,-0.993836 z m 10.36613,55.366979 c 48.37308,0.105839 95.76568,23.667019 126.27715,61.007689 21.16097,25.83742 35.78973,57.81759 38.66724,91.2592 0.38755,25.48836 1.83706,51.8613 -7.71594,76.0714 -17.66915,54.53946 -64.40898,99.07146 -120.48836,112.13967 -19.98135,5.7579 -41.00181,3.68878 -61.51682,3.96343 C 184.50148,421.50944 137.17581,391.23494 111.16175,346.98101 95.307302,320.97656 85.954593,290.9305 86.051481,260.35812 83.199174,199.33092 116.44184,138.54254 168.70961,107.18414 196.02526,90.626647 228.13359,82.181103 260.07185,83.413171 Z"
     id="path248" /><path
     style="fill:#cccccc;stroke-width:0.875962"
     d="m 249.71941,28.046192 c -33.05538,-0.304203 -65.6502,9.431839 -95.03074,24.122714 -50.17061,25.40449 -89.485085,70.476024 -109.014271,123.103974 -9.078096,23.69856 -14.249213,48.93859 -13.705196,74.37468 -0.33551,20.36244 -0.253251,41.01411 5.651594,60.7056 17.116719,74.93016 75.621193,138.24733 148.382923,162.51677 22.81372,8.18102 47.01898,12.34623 71.27425,11.39278 72.77134,0.49912 143.55331,-38.74469 183.95791,-98.89351 22.2937,-33.14622 36.55776,-72.12805 39.04724,-112.09255 0.11876,-21.55805 1.56022,-43.47424 -4.18651,-64.51957 -9.84416,-46.23698 -33.77682,-89.43443 -68.77242,-121.362729 -39.653,-37.099033 -93.35233,-59.758693 -147.9076,-59.274591 -3.232,-0.06276 -6.46461,-0.08589 -9.69718,-0.07357 z m 7.37553,55.312231 c 53.42016,-0.591461 105.60609,27.031027 136.41555,70.448207 17.27682,24.40164 29.36776,53.28419 31.46298,83.28147 0.74904,25.84522 1.19138,52.4872 -8.32165,77.00428 -18.66129,52.43007 -63.42241,96.06792 -118.02332,109.25647 -20.6959,6.28507 -42.5587,4.39967 -63.87059,4.43385 C 196.15124,422.42899 159.26877,404.23782 132.77184,375.45132 92.113416,332.82267 76.202892,268.86771 91.324205,212.0325 c 8.542063,-34.11143 28.013075,-65.06039 54.494635,-88.11635 30.3282,-26.42477 70.98291,-41.592848 111.2761,-40.557727 z"
     id="path287" /><path
     style="fill:#cccccc;stroke-width:0.875962"
     d="M 246.40205,28.506415 C 219.85497,27.564922 193.8539,35.291729 169.4816,45.156542 108.55962,70.699305 60.745426,124.43533 41.40741,187.49035 c -10.30787,31.63087 -11.509789,65.46357 -8.472118,98.3557 7.084093,58.17032 38.1642,112.52189 83.771268,149.12759 32.93975,26.63265 73.72494,43.52462 115.72744,48.61013 28.16089,1.24047 56.92478,0.91926 84.06352,-7.61695 40.94284,-11.83506 78.62392,-35.15822 106.61606,-67.40963 32.15391,-35.64046 52.1243,-82.02717 56.73927,-129.73599 1.35284,-22.96103 2.13172,-46.29956 -3.54601,-68.79587 C 469.11962,172.85136 451.63948,137.89312 427.71769,108.68605 407.74248,86.154433 384.86315,65.741611 357.69545,52.289134 332.34838,39.559728 304.62281,30.532384 276.20748,28.689846 266.27557,28.402 256.33679,28.519744 246.40205,28.506415 Z m 11.79811,55.105216 c 41.59325,-0.598199 82.49592,16.895219 112.97177,44.783569 34.11808,32.31281 56.13008,78.8309 54.1108,126.31307 0.12438,20.49127 -1.60121,41.27941 -9.33492,60.46534 -13.59468,38.85515 -41.97604,72.29265 -77.81386,92.42908 -25.49312,14.03729 -54.55928,21.66752 -83.72846,20.53308 -20.60298,1.09033 -40.96818,-3.55408 -60.02918,-11.11431 -50.20114,-19.13925 -89.04445,-63.82725 -102.639446,-115.6214 -3.338641,-10.52089 -4.162638,-21.59197 -5.16886,-32.44028 -2.341683,-24.1831 1.387798,-49.19233 9.417769,-72.19845 C 116.81534,137.62059 172.12374,91.262689 234.91151,84.489968 c 7.73956,-0.711216 15.51903,-0.927242 23.28865,-0.878337 z"
     id="path326" /><path
     style="fill:#cccccc;stroke-width:0.875962"
     d="M 249.82377,28.075277 C 206.28642,27.747407 163.5115,43.556933 128.01881,68.232675 77.126641,103.82469 42.39238,161.24483 33.40041,222.57358 c -2.997955,24.03427 -2.20611,48.51582 0.753567,72.51281 9.162967,53.28044 37.707948,103.06815 79.715853,137.22406 32.79564,28.19603 74.4402,45.54866 117.18234,51.11982 31.72886,2.57645 64.1196,0.19507 94.35586,-10.24466 36.47831,-12.17543 70.09092,-33.41223 95.55108,-62.37611 31.22534,-33.40309 51.14707,-76.9365 57.80155,-122.04652 2.56173,-25.84049 3.74801,-52.26454 -2.0859,-77.77516 C 467.49095,166.51343 445.57178,124.38804 412.64327,92.87596 379.31823,58.402304 333.79874,36.226176 286.43112,29.627031 274.27453,28.396776 262.03646,28.059878 249.82377,28.075277 Z m 6.80411,55.262616 c 50.90782,-0.196873 101.06433,24.249257 132.24465,64.499567 19.19281,24.79926 32.82161,54.79628 35.52081,86.23908 1.09122,27.9517 1.92144,57.07525 -9.19575,83.37084 -20.13168,54.63426 -69.85885,98.43582 -127.69717,108.03764 -4.07999,0.4195 -8.45547,2.03042 -12.88366,1.93354 -22.92529,1.41041 -46.53052,1.73325 -68.42844,-6.25568 C 165.15093,408.33201 129.2608,379.80287 108.40543,342.08974 95.824329,319.55149 87.815702,294.27722 86.412316,268.45337 81.813154,213.71591 105.78798,157.53955 147.96713,122.36165 177.9916,96.787245 217.24757,82.937798 256.62788,83.337893 Z"
     id="path365" /><path
     style="fill:#cccccc;stroke-width:0.875962"
     d="M 251.77074,28.02224 C 187.03743,27.598234 124.00057,59.936644 83.370838,109.77635 55.400211,144.44242 36.537593,187.13513 32.323352,231.639 c -0.347067,28.20398 -2.143321,57.12479 6.509393,84.4127 19.119972,71.0459 74.108865,131.93286 144.054615,155.74522 22.71642,8.19599 46.73879,13.48337 71.00651,12.2694 22.98597,0.36633 46.02957,-2.41816 67.90595,-9.65402 37.9547,-11.96516 72.87478,-33.81924 99.31071,-63.67967 41.06623,-44.26805 62.94583,-105.45183 59.48266,-165.71867 -0.37923,-29.21088 -8.61368,-57.91208 -20.21168,-84.54861 C 447.83687,132.58391 429.31509,107.61433 406.65354,87.127457 373.15865,55.068114 328.79805,34.564995 282.80792,29.063401 272.50739,27.952571 262.11851,27.941647 251.77074,28.02224 Z m 5.52095,55.409751 c 52.54213,-0.133951 104.11606,26.272309 134.839,68.878849 16.59745,22.8445 28.53013,49.69993 31.90896,77.85166 0.30389,19.39077 1.09845,38.90611 -0.71106,58.23407 -11.80607,65.15566 -64.06171,121.73195 -129.17536,135.88075 -4.86797,1.1102 -9.46434,1.25041 -14.25589,2.48914 -29.55237,3.59217 -60.19776,1.15585 -87.74728,-10.70713 C 140.5505,395.47207 101.50883,347.82525 89.964386,293.66119 79.133135,244.10329 90.64425,190.04962 121.72641,149.80857 c 26.00028,-33.98139 65.28006,-58.461976 107.89377,-64.202071 9.10543,-1.567171 18.34101,-2.295836 27.67151,-2.174508 z"
     id="path404" /><path
     style="fill:#cccccc;stroke-width:0.875962"
     d="M 251.75705,28.02224 C 198.30587,27.565382 146.01575,50.07299 106.40703,85.356436 65.700257,121.99132 39.308049,173.99993 32.638151,228.26004 c -2.394869,32.35703 -1.774207,65.63509 8.680916,96.68034 11.885441,36.53927 32.284226,70.62518 60.686513,96.71695 34.30571,34.04125 80.3739,55.49962 128.16379,61.7199 34.98582,2.91404 70.86085,-0.26504 103.7466,-13.12255 32.60219,-12.34022 62.47836,-32.05501 85.80686,-58.0511 36.24265,-38.29633 58.02723,-89.95847 60.88876,-142.55203 0.67831,-24.14823 0.0337,-48.65564 -7.02564,-71.95267 C 462.04737,153.62169 437.4315,112.90951 402.57655,83.378954 368.99297,52.354617 324.83386,33.676224 279.5704,28.733734 270.32189,27.980113 261.03034,27.93069 251.75705,28.02224 Z m 3.86827,55.683489 c 53.46428,-1.261504 106.16574,26.217911 137.15892,69.554511 16.10043,22.67379 27.9484,49.08861 31.21767,76.85607 0.25336,20.82768 1.45237,41.87227 -1.56198,62.55147 -13.22743,61.88627 -62.35894,115.81329 -124.49516,130.59078 -4.10644,1.4698 -8.89334,1.67834 -12.85496,2.47282 -13.47527,3.10437 -27.6408,1.73778 -41.3992,1.98464 C 211.66297,426.82975 180.93959,413.4722 155.10179,395.12744 129.13668,375.21019 108.18157,348.27576 97.183914,317.29511 87.962303,294.6207 85.287996,269.93569 86.542169,245.63282 89.010935,182.36041 130.14448,122.59644 188.24715,97.470237 c 14.88632,-6.528305 31.00451,-11.093421 47.05994,-12.558349 6.41343,-1.932981 13.62291,-0.913425 20.31823,-1.206159 z"
     id="path443" /><path
     style="fill:#cccccc;stroke-width:0.875962"
     d="M 253.74678,27.98118 C 200.46624,27.13818 147.80681,48.56935 108.27887,83.899056 89.03752,101.10614 72.300493,121.15634 60.164241,144.00855 42.951156,175.61829 31.38924,211.08467 31.832134,247.37296 c -1.413553,28.46839 1.915285,57.2512 11.693692,84.11952 21.038997,60.63666 68.530404,111.83754 128.104774,136.08865 28.14295,12.01601 58.80894,18.62391 89.48731,16.61482 33.25501,-0.36539 66.20566,-8.75464 95.68022,-24.13014 24.33788,-12.10106 45.97333,-29.05271 64.2487,-49.11434 32.80937,-35.27509 53.28746,-81.62131 58.72335,-129.38812 0.74402,-20.30052 1.64716,-40.81514 -1.00373,-61.01075 C 471.61962,180.4575 455.67879,141.37766 428.85543,110.35847 406.30191,83.567135 378.64575,60.651183 346.35485,46.616208 317.33013,33.611932 285.56726,27.020692 253.74678,27.98118 Z m 3.26262,55.512401 c 23.6215,0.423691 47.70726,4.62475 68.84859,15.409752 25.62741,10.713257 48.15733,29.567197 64.97472,51.842947 17.34777,23.42139 29.99422,51.12712 33.14674,80.26654 0.2098,19.36369 1.26465,38.87605 -0.94097,58.15056 -2.2359,9.7144 -4.21679,20.04601 -8.78699,28.81779 -0.29715,1.64615 -0.70106,3.70001 -2.07871,5.21813 -2.95352,9.63666 -8.71276,18.66891 -13.84263,27.45534 -30.11759,46.86161 -84.39494,78.72872 -140.6843,77.04253 -18.76328,0.16046 -37.79733,-1.13509 -55.4565,-8.00368 -11.42992,-4.2644 -23.43668,-8.54686 -33.12862,-15.97238 -2.62042,-1.1332 -6.55281,-3.10756 -9.1959,-5.2609 -29.96148,-20.91896 -52.90427,-51.5684 -64.521443,-86.22712 -19.149444,-55.22243 -8.158743,-119.77204 28.743643,-165.20562 26.33417,-33.2228 65.80867,-56.084308 107.84148,-61.820095 8.34086,-0.800656 16.68556,-1.856836 25.08089,-1.713794 z"
     id="path482" /><path
     style="fill:#cccccc;stroke-width:0.875962"
     d="M 253.7177,27.98118 C 199.54019,27.168788 145.90856,49.194774 106.24198,85.756837 81.447384,108.17077 61.775909,136.01041 48.880295,166.83925 36.325133,195.80285 30.4297,227.46708 31.579612,259.01109 c -1.017298,48.53435 16.811004,96.33721 45.315167,135.18223 37.086781,48.76542 93.956421,82.7014 155.103501,89.40803 34.42292,2.52298 69.60962,-0.74882 101.95687,-13.3351 67.84984,-24.95091 121.10315,-84.71768 139.27752,-154.54042 8.03434,-28.50906 8.88121,-58.57485 6.41659,-87.92943 C 473.02664,176.22695 449.00383,126.6179 410.78949,91.076853 370.13745,49.72319 311.70457,26.161965 253.7177,27.98118 Z m 5.87169,55.808381 c 22.53074,-0.0071 45.12894,5.244072 65.5295,14.699743 1.53485,2.015506 3.99388,0.835636 6.21729,2.792126 22.93368,11.06888 42.53286,28.20344 58.40718,47.95381 20.7044,27.82699 35.1466,61.63254 34.75764,96.77303 0.19901,24.19208 0.47048,49.73255 -10.24951,71.9575 -0.56516,1.35964 -0.1622,3.67472 -1.86142,4.97348 -21.93326,55.21787 -75.24273,97.64587 -134.71172,103.87682 -17.15725,0.16485 -34.53318,1.65956 -51.55969,-0.86135 -19.73671,-4.05558 -39.40958,-10.60095 -56.36332,-21.60742 -15.12726,-8.03234 -28.77803,-20.32288 -40.34059,-33.33726 C 106.1921,344.9444 91.400306,311.45832 87.33105,276.8195 84.91853,256.46238 86.025024,235.80129 90.848947,215.86467 104.30118,155.05958 153.50487,103.46376 214.23649,88.687848 c 14.81868,-3.833931 30.06227,-5.31575 45.3529,-4.898287 z"
     id="path521" /><path
     style="fill:#cccccc;stroke-width:0.875962"
     d="m 190.92044,160.73909 c -11.31607,11.35601 -22.32408,23.01324 -33.42686,34.57656 19.59199,20.2587 39.99674,39.93119 58.84345,60.79041 -19.02265,20.95396 -39.45096,40.60952 -59.08126,60.99915 13.02165,12.80178 25.67733,26.22046 39.071,38.49615 20.17628,-19.4592 39.14541,-40.39218 59.52951,-59.48674 20.62802,19.48819 40.30569,39.96625 60.43969,59.96407 12.81437,-13.13944 25.62874,-26.27887 38.44311,-39.41831 -19.94202,-20.18157 -39.9609,-40.28829 -59.7177,-60.65183 19.90121,-20.36854 39.80198,-40.73752 59.7023,-61.10693 -12.97975,-13.01511 -25.9595,-26.03023 -38.93926,-39.04534 -19.85515,20.23724 -39.71029,40.47448 -59.56544,60.71172 -20.01894,-20.32439 -40.08937,-40.59886 -59.94354,-61.08469 -1.785,1.75193 -3.57,3.50385 -5.355,5.25578 z"
     id="path560" /></svg>
