<?xml version="1.0" encoding="UTF-8" standalone="no"?>
<svg
   id="Layer_1"
   data-name="Layer 1"
   viewBox="0 0 128 128"
   version="1.1"
   sodipodi:docname="favorite.svg"
   inkscape:version="1.1 (c68e22c387, 2021-05-23)"
   xmlns:inkscape="http://www.inkscape.org/namespaces/inkscape"
   xmlns:sodipodi="http://sodipodi.sourceforge.net/DTD/sodipodi-0.dtd"
   xmlns="http://www.w3.org/2000/svg"
   xmlns:svg="http://www.w3.org/2000/svg">
  <sodipodi:namedview
     id="namedview11"
     pagecolor="#ffffff"
     bordercolor="#666666"
     borderopacity="1.0"
     inkscape:pageshadow="2"
     inkscape:pageopacity="0.0"
     inkscape:pagecheckerboard="0"
     showgrid="false"
     inkscape:zoom="6.8203125"
     inkscape:cx="64"
     inkscape:cy="64"
     inkscape:window-width="2560"
     inkscape:window-height="1377"
     inkscape:window-x="-8"
     inkscape:window-y="-8"
     inkscape:window-maximized="1"
     inkscape:current-layer="Layer_1" />
  <defs
     id="defs4">
    <style
       id="style2">.cls-1{fill:#2d3e50;}</style>
  </defs>
  <title
     id="title6">x</title>
  <path
     class="cls-1"
     d="M126.458,49.80865a3.82834,3.82834,0,0,0-3.44158-2.6787l-.07-.00454L88.69406,44.64167a9.42326,9.42326,0,0,1-7.92474-5.78056L67.71535,7.113a4.00473,4.00473,0,0,0-7.413.00632L47.21657,38.90681a9.335,9.335,0,0,1-7.9738,5.76625L4.97754,47.1571a3.83874,3.83874,0,0,0-3.433,2.69558,3.88633,3.88633,0,0,0,1.12761,4.26546l26.39325,21.8175a9.39826,9.39826,0,0,1,3.12215,9.40766l-8.1266,33.2117a3.61175,3.61175,0,0,0,.57676,3.271,3.93479,3.93479,0,0,0,3.054,1.54619,3.458,3.458,0,0,0,1.96325-.60736l.12018-.07778,28.92946-17.99574a9.3007,9.3007,0,0,1,9.81731-.046L97.91,122.70674a3.62289,3.62289,0,0,0,1.98269.63826,3.72763,3.72763,0,0,0,2.8464-1.448,4.10881,4.10881,0,0,0,.77325-3.51852L95.4254,85.34882a9.386,9.386,0,0,1,3.17131-9.46008l26.73153-21.83132A3.87416,3.87416,0,0,0,126.458,49.80865Z"
     id="path8" />
  <path
     style="fill:#cccccc;stroke-width:0.146621"
     d="m 63.697595,4.7689003 c -1.51257,0.055612 -2.908781,1.1808598 -3.308735,2.6411627 -4.686552,10.806005 -8.971993,21.785083 -13.621927,32.60381 -1.520814,2.543549 -4.216456,4.505103 -7.249862,4.60113 -11.499396,1.102533 -23.046248,1.642175 -34.552008,2.671939 -2.9959499,0.02564 -4.62743327,4.120458 -2.6706758,6.307846 9.0880418,7.777416 18.4834618,15.201033 27.5532638,23.003723 2.547117,2.439364 3.141962,6.314235 2.171377,9.606233 -2.534605,11.067523 -5.505753,22.033846 -7.91393,33.130026 -0.504065,2.7705 3.212872,5.14036 5.450171,3.30412 10.071157,-6.07291 19.96333,-12.44327 30.042956,-18.49857 2.950138,-1.3866 6.652531,-1.2335 9.310109,0.73575 9.955209,5.905 19.704692,12.15198 29.664539,18.04732 2.535517,1.34431 5.631427,-1.70492 4.797257,-4.30898 -2.54943,-11.25299 -5.482348,-22.425908 -8.133385,-33.647629 0.02441,-2.080396 -0.254961,-4.308675 0.92763,-6.159794 1.250984,-2.542263 3.845555,-3.942174 5.859855,-5.79995 7.85607,-6.510868 15.81641,-12.895868 23.64931,-19.4343 1.77383,-2.007282 0.68111,-5.751962 -2.05498,-6.193585 -6.55549,-0.73464 -13.15428,-1.034361 -19.72928,-1.564115 C 98.544863,45.381462 93.180182,45.131892 87.850132,44.55921 85.039622,44.157403 82.567984,42.294907 81.183946,39.856372 76.387363,28.720441 72.023977,17.399631 67.117697,6.3115693 66.326525,5.2936749 65.01354,4.599536 63.697595,4.7689003 Z"
     id="path1767" />
</svg>
