<?xml version="1.0" encoding="UTF-8" standalone="no"?>
<svg
   width="18px"
   height="20px"
   viewBox="0 0 18 20"
   version="1.1"
   id="svg19"
   sodipodi:docname="forward.svg"
   inkscape:version="1.1 (c68e22c387, 2021-05-23)"
   xmlns:inkscape="http://www.inkscape.org/namespaces/inkscape"
   xmlns:sodipodi="http://sodipodi.sourceforge.net/DTD/sodipodi-0.dtd"
   xmlns="http://www.w3.org/2000/svg"
   xmlns:svg="http://www.w3.org/2000/svg">
  <sodipodi:namedview
     id="namedview21"
     pagecolor="#ffffff"
     bordercolor="#666666"
     borderopacity="1.0"
     inkscape:pageshadow="2"
     inkscape:pageopacity="0.0"
     inkscape:pagecheckerboard="0"
     showgrid="false"
     inkscape:zoom="43.65"
     inkscape:cx="9.908362"
     inkscape:cy="10"
     inkscape:window-width="2560"
     inkscape:window-height="1377"
     inkscape:window-x="-8"
     inkscape:window-y="-8"
     inkscape:window-maximized="1"
     inkscape:current-layer="svg19" />
  <!-- Generator: Sketch 41.2 (35397) - http://www.bohemiancoding.com/sketch -->
  <title
     id="title2">ic_next</title>
  <desc
     id="desc4">Created with Sketch.</desc>
  <defs
     id="defs6" />
  <path
     style="fill:#cccccc;stroke-width:0.0154547"
     d="M 9.195922,3.7657316 C 8.756919,3.7698916 8.405418,4.1684476 8.52291,4.5268009 8.57549,4.70221 8.764531,4.8155656 8.89556,4.9492367 c 1.26751,1.0987338 2.559098,2.1773539 3.837217,3.2672153 0.214838,0.18229 0.429672,0.364579 0.64451,0.546869 -3.265614,0.003 -6.5312901,-0.0074 -9.7968621,0.0089 -0.208954,-0.0063 -0.434244,0.0019 -0.60284,0.121286 -0.184488,0.120596 -0.308017,0.316636 -0.277733,0.517141 -0.01243,0.31434 0.345414,0.596943 0.713885,0.579234 2.528896,0.01874 5.0579841,0.008 7.5869611,0.01115 0.792196,0 1.584392,0 2.376589,0 -1.472689,1.254308 -2.957046,2.498841 -4.421056,3.760425 -0.146651,0.143713 -0.338583,0.267168 -0.425549,0.446364 -0.13547,0.353843 0.192789,0.766485 0.630874,0.790715 0.212299,0.01446 0.430478,-0.05095 0.567736,-0.191967 1.351356,-1.113261 2.6755,-2.250012 4.010483,-3.377343 0.668218,-0.57162 1.346816,-1.135372 2.004102,-1.715672 C 15.922315,9.475048 15.88725,9.11866 15.618354,8.937312 13.78197,7.3656 11.934739,5.8030096 10.081242,4.2458548 9.899557,4.1045563 9.737229,3.9409455 9.532952,3.822886 9.427128,3.78387 9.311624,3.7620244 9.195922,3.7657316 Z"
     id="path911" />
</svg>
