<?xml version="1.0" encoding="UTF-8" standalone="no"?>
<svg
   width="24"
   height="24"
   viewBox="0 0 24 24"
   fill="none"
   version="1.1"
   id="svg4"
   sodipodi:docname="github.svg"
   inkscape:version="1.1 (c68e22c387, 2021-05-23)"
   xmlns:inkscape="http://www.inkscape.org/namespaces/inkscape"
   xmlns:sodipodi="http://sodipodi.sourceforge.net/DTD/sodipodi-0.dtd"
   xmlns="http://www.w3.org/2000/svg"
   xmlns:svg="http://www.w3.org/2000/svg">
  <defs
     id="defs8" />
  <sodipodi:namedview
     id="namedview6"
     pagecolor="#ffffff"
     bordercolor="#666666"
     borderopacity="1.0"
     inkscape:pageshadow="2"
     inkscape:pageopacity="0.0"
     inkscape:pagecheckerboard="0"
     showgrid="false"
     inkscape:zoom="36.375"
     inkscape:cx="12"
     inkscape:cy="12"
     inkscape:window-width="2560"
     inkscape:window-height="1377"
     inkscape:window-x="-8"
     inkscape:window-y="-8"
     inkscape:window-maximized="1"
     inkscape:current-layer="svg4" />
  <path
     d="M 9.0984502,14.711231 C 2.6736505,13.627932 3.1678657,8.7530965 5.1446782,7.1281514 4.754557,6.4690195 4.1562477,3.8782612 4.6504532,2.7949752 c 0.9884307,0.5416374 2.3150769,1.3426704 2.9653312,2.1665825 1.9768213,-1.0832965 4.9420566,-1.0832965 6.4247216,0 0.39017,-0.878846 1.82089,-1.7088571 2.471076,-2.1665934 0.585206,0.6591318 0.162547,3.2346374 0,4.3331871 0.975279,2.3801981 1.482666,5.9581336 -3.953741,7.5830796 0.804075,0.724507 2.097638,2.453883 2.997237,4.429924 0.637541,1.400486 -0.581218,2.687442 -1.969624,2.413911 -0.969346,-0.190987 -2.045304,-0.344057 -3.004437,-0.344057 -1.1614623,0 -2.6988942,0.224352 -4.0294506,0.46896 C 5.175495,21.93281 4.0624747,20.612165 4.7683117,19.272559 5.2807369,18.299976 5.9268275,17.389682 6.6273533,16.877822 6.3835238,16.51167 5.4176612,15.457295 3.662081,16.336174 1.4676061,17.434746 0.20914013,15.00112 0.69679913,13.627932"
     stroke="#000000"
     stroke-linecap="round"
     stroke-linejoin="round"
     id="path2"
     style="stroke-width:1.02655" />
  <path
     style="fill:#cccccc;stroke-width:0.0282207"
     d="M 4.6180907,2.269777 C 4.2552561,2.313604 4.1331021,2.7756724 4.0641979,3.1133977 c -0.1707707,0.9634728 -0.00451,1.9549076 0.1960445,2.8962681 0.075994,0.3343237 0.1773447,0.6606168 0.2913582,0.9810378 -0.8131095,0.8957646 -1.2882942,2.1916212 -1.16637,3.4701684 0.083499,1.37732 0.8983534,2.580881 1.9121545,3.316732 1.1272749,0.826022 2.4574965,1.243271 3.7825901,1.450902 0.3482965,0.03529 0.6452325,-0.477675 0.4035885,-0.796592 C 9.3287077,14.135114 8.981804,14.184242 8.7232215,14.103503 7.5389915,13.84757 6.3320885,13.439315 5.401492,12.546003 4.6136135,11.85224 4.1606871,10.686515 4.3448503,9.573133 4.455225,8.7962094 4.8376125,8.0882656 5.3776831,7.5863306 5.5399252,7.4367372 5.6902011,7.1983399 5.575119,6.9592352 5.1481919,5.9116413 4.8917474,4.753724 4.9593159,3.5982466 4.9932213,3.5098399 5.13192,3.6940891 5.1958032,3.6966159 5.9553206,4.1533489 6.7007338,4.6608902 7.3171267,5.3414441 7.4986194,5.5626366 7.7772786,5.4763346 7.9825858,5.3521032 9.0400282,4.8308393 10.216088,4.639205 11.366923,4.6885877 c 0.854062,0.05039 1.725298,0.2305793 2.464244,0.7339944 0.234263,0.1441512 0.529504,0.0086 0.642492,-0.2517281 0.378082,-0.6221938 0.97399,-1.0234216 1.531884,-1.4205067 0.09715,-0.050977 0.201518,-0.1599701 0.303827,-0.1662403 0.07377,1.0938076 -0.07696,2.1829494 -0.229548,3.2603674 -0.04776,0.2141264 -0.03822,0.4316902 0.05572,0.6294015 0.433403,1.114428 0.716704,2.4056604 0.341767,3.5912861 -0.374475,1.173782 -1.339104,1.957351 -2.320206,2.457776 -0.581426,0.313123 -1.207086,0.499296 -1.814922,0.732435 -0.275457,0.148411 -0.348949,0.616358 -0.09344,0.830271 1.1227,1.163047 2.055835,2.548055 2.775198,4.054584 0.146027,0.268688 0.244105,0.56984 0.218211,0.888249 -0.0694,0.573354 -0.587863,0.970108 -1.082815,1.015573 -0.635577,0.04091 -1.253213,-0.184607 -1.883497,-0.239906 C 10.437277,20.572316 8.5805072,20.7712 6.7632986,21.111231 6.2759489,21.196703 5.6907844,21.246699 5.3170206,20.81283 5.1096543,20.619399 5.0065273,20.324012 5.0422588,20.025628 5.0511859,19.614043 5.3325853,19.296503 5.5080028,18.956754 5.8951814,18.30782 6.3666544,17.717439 6.9348486,17.259277 7.1773857,17.043789 7.1128519,16.612886 6.8887019,16.40995 6.3973876,15.83735 5.701601,15.460806 4.9815718,15.483135 4.3162727,15.432071 3.7068145,15.772493 3.0941929,16.002689 2.5871662,16.15527 1.9768278,16.087751 1.6065045,15.632067 1.1442914,15.154384 0.94321383,14.381185 1.1569523,13.710994 1.2393085,13.304889 0.74252613,12.916068 0.44076103,13.203375 0.1485676,13.474987 0.13530824,13.95346 0.12434584,14.345421 c 0.0245459,1.323173 0.94822986,2.594741 2.14752906,2.76821 0.6570399,0.108166 1.2937357,-0.165389 1.8930078,-0.42927 0.544932,-0.216942 1.1934928,-0.241175 1.6928059,0.120056 -0.053586,0.189273 -0.2432252,0.30735 -0.3502159,0.465587 -0.5146892,0.647517 -1.0004594,1.346932 -1.311356,2.144528 -0.2843972,0.801931 -0.017285,1.7718 0.6009174,2.282288 0.5019333,0.438467 1.1681632,0.626512 1.7968513,0.499802 1.6972636,-0.268268 3.4150836,-0.591578 5.1336216,-0.391477 0.727213,0.05028 1.438027,0.253372 2.165068,0.297271 1.023645,0.07775 2.107988,-0.711301 2.280289,-1.875749 0.110433,-0.611337 -0.122968,-1.203189 -0.389553,-1.721921 -0.601323,-1.23686 -1.351145,-2.377882 -2.18875,-3.428519 -0.126004,-0.103272 -0.05899,-0.170966 0.06867,-0.195066 1.179982,-0.489359 2.367366,-1.159976 3.137996,-2.307907 0.511996,-0.759924 0.814779,-1.704995 0.783464,-2.6603135 0.03387,-0.9928665 -0.251433,-1.9542363 -0.583263,-2.862267 0.151998,-0.9939109 0.292783,-1.9962123 0.259218,-3.0080314 0.0187,-0.57022 -0.06339,-1.199068 -0.43586,-1.6239583 C 16.665228,2.2294677 16.400561,2.2354095 16.223996,2.391629 15.386897,2.9140903 14.562959,3.4869917 13.883921,4.2504699 13.015096,3.8372359 12.072262,3.6229639 11.126856,3.6391959 9.9618797,3.5958938 8.7952546,3.8466699 7.7158064,4.3313215 6.8868385,3.4973496 5.8930131,2.89786 4.8950587,2.3540175 4.8076551,2.3079117 4.7177314,2.260314 4.6180907,2.269777 Z"
     id="path1123" />
</svg>
