<?xml version="1.0" encoding="UTF-8" standalone="no"?>
<svg
   version="1.1"
   viewBox="0 0 129 129"
   enable-background="new 0 0 129 129"
   id="svg6"
   sodipodi:docname="search.svg"
   inkscape:version="1.1 (c68e22c387, 2021-05-23)"
   xmlns:inkscape="http://www.inkscape.org/namespaces/inkscape"
   xmlns:sodipodi="http://sodipodi.sourceforge.net/DTD/sodipodi-0.dtd"
   xmlns="http://www.w3.org/2000/svg"
   xmlns:svg="http://www.w3.org/2000/svg">
  <defs
     id="defs10" />
  <sodipodi:namedview
     id="namedview8"
     pagecolor="#ffffff"
     bordercolor="#666666"
     borderopacity="1.0"
     inkscape:pageshadow="2"
     inkscape:pageopacity="0.0"
     inkscape:pagecheckerboard="0"
     showgrid="false"
     inkscape:zoom="6.7674419"
     inkscape:cx="64.5"
     inkscape:cy="64.5"
     inkscape:window-width="2560"
     inkscape:window-height="1377"
     inkscape:window-x="-8"
     inkscape:window-y="-8"
     inkscape:window-maximized="1"
     inkscape:current-layer="svg6" />
  <g
     id="g4"
     style="fill:#00d300;fill-opacity:1"
     transform="matrix(1.091318,0,0,1.0972809,-6.5042195,-5.9965224)">
    <path
       d="m 51.6,96.7 c 11,0 21,-3.9 28.8,-10.5 l 35,35 c 0.8,0.8 1.8,1.2 2.9,1.2 1.1,0 2.1,-0.4 2.9,-1.2 1.6,-1.6 1.6,-4.2 0,-5.8 l -35,-35 C 92.7,72.6 96.7,62.5 96.7,51.6 96.7,26.7 76.5,6.5 51.6,6.5 26.8,6.5 6.5,26.8 6.5,51.6 c 0,24.9 20.3,45.1 45.1,45.1 z m 0,-82 C 72,14.7 88.5,31.3 88.5,51.6 88.5,72 72,88.5 51.6,88.5 31.2,88.5 14.7,71.9 14.7,51.6 14.7,31.3 31.3,14.7 51.6,14.7 Z"
       id="path2"
       style="fill:#00d300;fill-opacity:1" />
  </g>
</svg>
