<?xml version="1.0" encoding="UTF-8" standalone="no"?>
<!-- Generator: Adobe Illustrator 18.0.0, SVG Export Plug-In . SVG Version: 6.00 Build 0)  -->

<svg
   version="1.1"
   id="Capa_1"
   x="0px"
   y="0px"
   viewBox="0 0 55 55"
   style="enable-background:new 0 0 55 55;"
   xml:space="preserve"
   sodipodi:docname="gitmarker.svg"
   inkscape:version="1.1 (c68e22c387, 2021-05-23)"
   xmlns:inkscape="http://www.inkscape.org/namespaces/inkscape"
   xmlns:sodipodi="http://sodipodi.sourceforge.net/DTD/sodipodi-0.dtd"
   xmlns="http://www.w3.org/2000/svg"
   xmlns:svg="http://www.w3.org/2000/svg"><defs
   id="defs47" /><sodipodi:namedview
   id="namedview45"
   pagecolor="#ffffff"
   bordercolor="#666666"
   borderopacity="1.0"
   inkscape:pageshadow="2"
   inkscape:pageopacity="0.0"
   inkscape:pagecheckerboard="0"
   showgrid="false"
   inkscape:zoom="15.872727"
   inkscape:cx="39.533219"
   inkscape:cy="31.721077"
   inkscape:window-width="2560"
   inkscape:window-height="1377"
   inkscape:window-x="-8"
   inkscape:window-y="-8"
   inkscape:window-maximized="1"
   inkscape:current-layer="Capa_1" />
















<path
   stroke-width="0"
   fill="currentColor"
   d="m 27.594503,2.1386022 c -15.235824,0 -27.08591105,11.4250798 -27.08591105,26.1144758 0,17.13762 16.08225905,24.482319 18.62156205,24.482319 1.692872,0 1.692872,-0.81608 1.692872,-1.63216 v -4.080383 c -5.925044,1.632155 -8.464347,-1.632156 -9.310783,-4.080389 0,0 0,-0.816077 -1.6928669,-2.448228 -0.8464373,-0.81608 -4.2321753,-2.448235 -0.8464373,-2.448235 2.5393042,0 4.2321722,3.264309 4.2321722,3.264309 2.539303,3.264311 5.925043,2.448234 7.617915,1.632154 0,-1.632154 1.692868,-3.264308 1.692868,-3.264308 -6.77148,-0.816077 -11.850089,-3.264309 -11.850089,-12.241159 0,-3.264305 0.846438,-5.712541 2.539306,-7.344696 0,0 -1.692868,-3.264308 0,-7.344693 0,0 4.232177,0 7.617915,3.264309 2.539305,-1.632155 11.003649,-1.632155 13.542952,0 3.385741,-3.264309 7.617915,-3.264309 7.617915,-3.264309 1.69287,5.712541 0,7.344693 0,7.344693 1.69287,1.632155 2.539305,4.080391 2.539305,7.344696 0,8.97685 -5.925044,11.425082 -11.850086,12.241159 0.846434,0.81608 1.692866,2.448231 1.692866,4.896465 v 6.528615 c 0,0.81608 0,1.63216 1.692872,1.63216 2.539304,0 18.621562,-7.344699 18.621562,-24.482319 0,-14.689396 -11.850086,-26.1144758 -27.085909,-26.1144758 z"
   id="path2-5"
   inkscape:transform-center-x="28.917526"
   inkscape:transform-center-y="0.063001147" /><polygon
   style="fill:#000000"
   points="213.333,10.441 279.249,144.017 426.667,165.436 320,269.41 345.173,416.226 213.333,346.91 81.485,416.226 106.667,269.41 0,165.436 147.409,144.017 "
   id="polygon2"
   transform="matrix(0.05388492,0,0,0.04884418,16.004546,16.827897)"
   inkscape:transform-center-x="34.87144"
   inkscape:transform-center-y="-0.4944435" /><g
   id="g4"
   transform="matrix(0.03519726,0,0,0.03833532,16.872693,17.778263)" /><g
   id="g6"
   transform="matrix(0.03519726,0,0,0.03833532,16.872693,17.778263)" /><g
   id="g8"
   transform="matrix(0.03519726,0,0,0.03833532,16.872693,17.778263)" /><g
   id="g10"
   transform="matrix(0.03519726,0,0,0.03833532,16.872693,17.778263)" /><g
   id="g12"
   transform="matrix(0.03519726,0,0,0.03833532,16.872693,17.778263)" /><g
   id="g14"
   transform="matrix(0.03519726,0,0,0.03833532,16.872693,17.778263)" /><g
   id="g16"
   transform="matrix(0.03519726,0,0,0.03833532,16.872693,17.778263)" /><g
   id="g18"
   transform="matrix(0.03519726,0,0,0.03833532,16.872693,17.778263)" /><g
   id="g20"
   transform="matrix(0.03519726,0,0,0.03833532,16.872693,17.778263)" /><g
   id="g22"
   transform="matrix(0.03519726,0,0,0.03833532,16.872693,17.778263)" /><g
   id="g24"
   transform="matrix(0.03519726,0,0,0.03833532,16.872693,17.778263)" /><g
   id="g26"
   transform="matrix(0.03519726,0,0,0.03833532,16.872693,17.778263)" /><g
   id="g28"
   transform="matrix(0.03519726,0,0,0.03833532,16.872693,17.778263)" /><g
   id="g30"
   transform="matrix(0.03519726,0,0,0.03833532,16.872693,17.778263)" /><g
   id="g32"
   transform="matrix(0.03519726,0,0,0.03833532,16.872693,17.778263)" /></svg>
