<?xml version="1.0" encoding="utf-8"?>
<!-- Generator: Adobe Illustrator 18.0.0, SVG Export Plug-In . SVG Version: 6.00 Build 0)  -->
<!DOCTYPE svg PUBLIC "-//W3C//DTD SVG 1.1//EN" "http://www.w3.org/Graphics/SVG/1.1/DTD/svg11.dtd">
<svg version="1.1" id="Layer_1" xmlns="http://www.w3.org/2000/svg" xmlns:xlink="http://www.w3.org/1999/xlink" x="0px" y="0px"
	 viewBox="0 0 42.1 40.7" enable-background="new 0 0 42.1 40.7" xml:space="preserve">
<g>
	<polygon fill="#616E7D" points="8.4,20.9 7.9,20.9 7.9,20.9 	"/>
	<path fill="#616E7D" d="M10.8,30c-2.4-2.4-3.8-5.3-4.1-8.6l-3.4,0.4l0,0l0,0c-0.3,0-0.6,0-1,0.1c-0.1,0-0.1,0-0.2,0
		c0.4,4.3,2.3,8.4,5.4,11.4c3.6,3.6,8.3,5.5,13.3,5.5c4.7,0,9.2-1.7,12.7-4.9l-3.3-3.3c-2.6,2.3-5.9,3.6-9.4,3.6
		C17.1,34.1,13.5,32.6,10.8,30z"/>
	<path fill="#616E7D" d="M20.7,1.3c-5,0-9.8,2-13.3,5.5C7,7.2,6.6,7.6,6.2,8.1l3.3,3.3c0.4-0.5,0.7-0.9,1.2-1.3
		c2.7-2.7,6.2-4.1,10-4.1c3.8,0,7.4,1.5,10,4.1c2.6,2.6,4,6,4.1,9.6c1.5-0.3,3.1-0.5,4.7-0.8C39.2,14.4,37.3,10,34,6.8
		C30.5,3.2,25.7,1.3,20.7,1.3L20.7,1.3z"/>
	<polygon fill="#AAD3C7" points="2.8,4.6 0.8,17.8 14,15.8 9.5,11.4 6.2,8.1 	"/>
	<polygon fill="#AAD3C7" points="30.2,30.6 33.6,33.9 36.9,37.3 38.9,24.1 25.7,26.1 	"/>
</g>
</svg>
