<?xml version="1.0" encoding="UTF-8" standalone="no"?>
<svg
   enable-background="new 0 0 512 512"
   id="Layer_1"
   version="1.1"
   viewBox="0 0 512.02277 512.00323"
   xml:space="preserve"
   sodipodi:docname="delete.svg"
   width="512.02277"
   height="512.00323"
   inkscape:version="1.1 (c68e22c387, 2021-05-23)"
   xmlns:inkscape="http://www.inkscape.org/namespaces/inkscape"
   xmlns:sodipodi="http://sodipodi.sourceforge.net/DTD/sodipodi-0.dtd"
   xmlns="http://www.w3.org/2000/svg"
   xmlns:svg="http://www.w3.org/2000/svg"><defs
     id="defs21" /><sodipodi:namedview
     id="namedview19"
     pagecolor="#ffffff"
     bordercolor="#666666"
     borderopacity="1.0"
     inkscape:pageshadow="2"
     inkscape:pageopacity="0.0"
     inkscape:pagecheckerboard="0"
     showgrid="false"
     inkscape:zoom="1.1416016"
     inkscape:cx="201.03336"
     inkscape:cy="257.09494"
     inkscape:window-width="2560"
     inkscape:window-height="1377"
     inkscape:window-x="-8"
     inkscape:window-y="-8"
     inkscape:window-maximized="1"
     inkscape:current-layer="Layer_1" /><path
     d="m 74.9775,437.0145 c -99.97,-99.97 -99.97,-262.065 0,-362.037 100.002,-99.97 262.066,-99.97 362.067,0 99.971,99.971 99.971,262.067 0,362.037 -100.001,99.985 -262.065,99.985 -362.067,0 z m 316.816,-316.786 c -75.001,-74.985 -196.564,-74.985 -271.534,0 -75.001,74.985 -75.001,196.55 0,271.535 74.97,74.986 196.533,74.986 271.534,0 74.972,-74.987 74.972,-196.55 0,-271.535 z m -203.658,248.91 -45.251,-45.266 67.876,-67.877 -67.876,-67.876 45.251,-45.267 67.876,67.892 67.877,-67.892 45.25,45.267 -67.876,67.876 67.876,67.877 -45.25,45.266 -67.877,-67.892 z"
     id="path16" /><path
     style="fill:#a0a0a0;stroke:none;stroke-width:0.437981"
     d="M 250.08725,511.68658 C 238.35447,511.4566 223.77273,509.99624 211.32592,507.80462 147.63224,496.5895 90.177364,461.16773 51.183401,409.07442 25.656345,374.972 9.018569,334.84622 2.8765306,292.57143 0.96797095,279.43508 0.47496033,271.92745 0.47496033,256 c 0,-23.85811 2.06691627,-40.78265 7.70236247,-63.06929 C 12.576503,175.53316 18.098212,160.54486 26.248841,143.87682 42.431607,110.78305 64.508746,82.678522 92.781416,59.179868 118.79805,37.556306 149.41401,21.043744 181.52105,11.318607 c 14.00409,-4.2417995 30.19709,-7.6206671 44.69623,-9.3264123 18.75804,-2.20678188 40.75781,-2.19855503 59.78443,0.022357 94.88342,11.0754163 175.96923,74.7062433 209.59756,164.4784183 21.55586,57.54425 21.54845,121.31814 -0.0206,179.07418 -15.76596,42.21667 -42.52052,79.51553 -77.7866,108.44327 -47.02235,38.57094 -106.08648,58.88398 -167.70483,57.67616 z m 21.10874,-64.09294 c 26.10775,-2.14668 51.80256,-9.53279 74.15217,-21.31547 53.70322,-28.31226 90.98434,-80.20313 100.46728,-139.83848 1.70817,-10.74218 2.18202,-17.27599 2.1917,-30.2207 0.0175,-23.2073 -2.95786,-41.41116 -10.28612,-62.93556 -5.33134,-15.65911 -12.02744,-29.166 -21.67083,-43.71286 -31.34532,-47.28372 -80.54637,-77.41423 -138.15113,-84.603157 -9.9364,-1.240039 -35.20349,-1.126895 -45.24216,0.202588 -43.90492,5.814608 -81.74961,24.231869 -112.23141,54.617849 -31.778428,31.67853 -50.583439,71.13761 -55.676971,116.82853 -1.028989,9.23042 -1.028989,29.53682 0,38.76724 5.889563,52.83165 30.608209,98.12239 71.463631,130.93925 29.27528,23.51518 65.65243,37.96633 103.80154,41.23608 6.39488,0.54809 24.69058,0.56846 31.1823,0.0346 z"
     id="path140" /><path
     style="fill:#a0a0a0;stroke:none;stroke-width:0.437981"
     d="m 165.66504,346.1133 -22.22568,-22.22888 33.72429,-33.72215 C 195.71201,271.61508 210.88794,256.24206 210.88794,256 c 0,-0.24206 -15.17594,-15.61509 -33.7243,-34.16227 l -33.72429,-33.72217 22.44628,-22.45836 22.44628,-22.45836 33.84671,34.04982 33.84671,34.04982 33.9306,-33.92849 33.9306,-33.92848 22.3376,22.33437 22.33759,22.33437 -33.72483,33.72694 C 316.28824,240.387 301.11206,255.76027 301.11206,256 c 0,0.23973 15.17618,15.613 33.72483,34.16281 l 33.72483,33.72694 -22.33759,22.33437 -22.3376,22.33437 L 289.94327,334.61735 256,300.6762 222.1649,334.50919 c -18.60931,18.60814 -33.93389,33.83298 -34.05465,33.83298 -0.12075,0 -10.2211,-10.00299 -22.44521,-22.22887 z"
     id="path179" /><path
     style="fill:#424242;stroke-width:0.875962;fill-opacity:1"
     d="M 249.67493,1.005988 C 240.38421,0.83031701 231.16225,1.3604043 222.04961,2.7750213 212.34694,3.6468486 202.95604,6.8226195 193.36082,8.6443858 110.52122,28.9314 40.747667,94.044831 14.042255,174.9443 8.1457148,192.31977 4.4944314,210.60854 1.986313,228.61077 c -1.22627237,18.17618 -0.8507676,36.81738 0.1404834,55.12732 6.6857289,56.069 31.3684256,110.27974 71.5728466,150.2525 52.269877,54.8998 130.452107,83.39284 205.798377,76.07378 75.78082,-6.38466 147.17357,-49.34118 188.85096,-112.87651 26.42159,-39.52633 41.30764,-86.48548 42.79386,-133.99026 0.80882,-7.45203 0.30876,-14.81496 -0.35415,-22.16596 0.578,-8.12732 -1.90647,-15.92432 -2.61492,-24.04589 C 500.84509,170.18472 480.48347,125.20723 449.18514,89.56848 430.44874,69.184245 409.97729,50.042645 385.7317,36.344834 344.93259,12.086032 297.13128,-0.38840246 249.67493,1.005988 Z m 7.497,62.964925 c 39.44192,-0.838868 78.51617,12.565275 110.69632,35.019672 39.34312,27.773145 67.03412,71.141755 76.83319,118.165955 -0.0538,2.0353 -0.4171,3.41382 1.03165,4.81608 3.16771,19.62553 2.58179,39.772 1.28908,59.56235 -7.54703,55.8037 -40.38973,107.73757 -88.33639,137.52566 -10.34773,6.16357 -21.04537,12.48839 -32.6088,15.88717 -1.99648,0.60537 -4.19103,2.87176 -6.84175,3.15654 -23.28923,7.2994 -47.65496,11.5088 -72.08656,10.08813 -6.40158,0.20816 -12.68319,-0.5573 -18.73465,-1.98034 -9.67937,-1.09912 -19.82242,-2.87423 -28.70145,-6.60735 -0.97594,-0.63994 -2.76504,0.46579 -2.9923,-1.3225 -8.44477,-0.72756 -16.3138,-5.58825 -24.16937,-8.73396 -39.35204,-18.70053 -72.03149,-51.43885 -90.427721,-90.92557 0.188363,-2.93628 -2.933872,-4.47042 -3.510692,-7.65612 -2.53778,-6.3918 -5.73528,-13.39885 -6.444824,-19.98289 -3.794557,-7.59368 -4.586015,-16.92128 -6.57772,-25.29475 -1.916425,-18.44197 -1.41062,-37.14003 -0.452221,-55.62741 1.374263,-4.9578 1.139672,-10.59305 3.182208,-15.30367 1.08815,-2.6431 0.406993,-6.9179 2.171085,-9.85458 1.84776,-2.09343 0.457025,-5.71408 2.242657,-8.30978 C 92.772444,134.21976 146.46011,83.298331 210.69802,69.035071 c 2.27197,-0.37848 3.73583,0.09567 5.49701,-1.267751 6.25409,-1.832316 13.24019,-2.473344 19.43028,-2.949529 6.87113,-1.275593 14.44062,-0.651508 21.54662,-0.846878 z"
     id="path63" /><path
     style="fill:#424242;fill-opacity:1;stroke-width:0.875962"
     d="m 166.21556,166.21556 c -7.37097,7.37155 -14.74194,14.74309 -22.11291,22.11463 22.4568,22.4625 44.9136,44.92501 67.3704,67.38751 -21.95458,23.26663 -44.93437,45.56388 -67.36014,68.38152 14.48731,14.70933 29.18816,29.2107 44.33875,43.23867 22.44426,-22.43856 44.88851,-44.87711 67.33277,-67.31566 22.62547,22.62516 45.25051,45.25076 67.87509,67.87682 14.74924,-14.73979 29.49803,-29.48003 44.24637,-44.2207 -22.59139,-22.5971 -45.18278,-45.19418 -67.77416,-67.79128 22.57586,-22.68389 45.15128,-45.36824 67.72626,-68.05303 -14.58569,-14.57656 -29.17138,-29.15312 -43.75706,-43.72968 -22.62516,22.62548 -45.25076,45.25051 -67.87681,67.8751 -22.63131,-22.6256 -45.26262,-45.25121 -67.89393,-67.87681 -7.37154,7.37097 -14.74308,14.74194 -22.11463,22.11291 z"
     id="path1139" /></svg>
