<?xml version="1.0" encoding="UTF-8" standalone="no"?>
<!-- Generator: Adobe Illustrator 18.0.0, SVG Export Plug-In . SVG Version: 6.00 Build 0)  -->

<svg
   version="1.1"
   id="Capa_1"
   x="0px"
   y="0px"
   viewBox="0 0 194.436 194.436"
   style="enable-background:new 0 0 194.436 194.436;"
   xml:space="preserve"
   sodipodi:docname="edit.svg"
   inkscape:version="1.1 (c68e22c387, 2021-05-23)"
   xmlns:inkscape="http://www.inkscape.org/namespaces/inkscape"
   xmlns:sodipodi="http://sodipodi.sourceforge.net/DTD/sodipodi-0.dtd"
   xmlns="http://www.w3.org/2000/svg"
   xmlns:svg="http://www.w3.org/2000/svg"><defs
   id="defs41" /><sodipodi:namedview
   id="namedview39"
   pagecolor="#ffffff"
   bordercolor="#666666"
   borderopacity="1.0"
   inkscape:pageshadow="2"
   inkscape:pageopacity="0.0"
   inkscape:pagecheckerboard="0"
   showgrid="false"
   inkscape:zoom="4.4899092"
   inkscape:cx="97.440723"
   inkscape:cy="97.218002"
   inkscape:window-width="2560"
   inkscape:window-height="1377"
   inkscape:window-x="-8"
   inkscape:window-y="-8"
   inkscape:window-maximized="1"
   inkscape:current-layer="Capa_1" />
<g
   id="g6"
   style="fill:#808080"
   transform="matrix(0.88774211,0,0,0.90377957,14.922463,2.6726598)">
	<path
   d="M 192.238,34.545 159.894,2.197 C 158.487,0.79 156.579,0 154.59,0 c -1.989,0 -3.897,0.79 -5.303,2.196 l -32.35,32.35 c -0.004,0.004 -0.008,0.01 -0.013,0.014 L 54.876,96.608 c -1.351,1.352 -2.135,3.166 -2.193,5.076 l -1.015,33.361 c -0.063,2.067 0.731,4.068 2.193,5.531 1.409,1.408 3.317,2.196 5.303,2.196 0.076,0 0.153,-0.001 0.229,-0.004 l 33.36,-1.018 c 1.909,-0.058 3.724,-0.842 5.075,-2.192 l 94.41,-94.408 c 2.929,-2.927 2.929,-7.676 0,-10.605 z M 154.587,61.587 132.847,39.85 154.59,18.107 176.328,39.848 Z m -65.263,65.263 -22.421,0.685 0.682,-22.422 54.655,-54.656 21.741,21.738 z"
   id="path2"
   style="fill:#808080" />
	<path
   d="m 132.189,117.092 c -4.142,0 -7.5,3.357 -7.5,7.5 v 54.844 H 15.001 V 69.748 h 54.844 c 4.142,0 7.5,-3.357 7.5,-7.5 0,-4.143 -3.358,-7.5 -7.5,-7.5 H 7.501 c -4.142,0 -7.5,3.357 -7.5,7.5 v 124.687 c 0,4.143 3.358,7.5 7.5,7.5 h 124.687 c 4.142,0 7.5,-3.357 7.5,-7.5 v -62.344 c 0.001,-4.142 -3.357,-7.499 -7.499,-7.499 z"
   id="path4"
   style="fill:#808080" />
</g>
<g
   id="g8"
   style="fill:#808080"
   transform="matrix(0.88774211,0,0,0.90377957,14.922463,2.6726598)">
</g>
<g
   id="g10"
   style="fill:#808080"
   transform="matrix(0.88774211,0,0,0.90377957,14.922463,2.6726598)">
</g>
<g
   id="g12"
   style="fill:#808080"
   transform="matrix(0.88774211,0,0,0.90377957,14.922463,2.6726598)">
</g>
<g
   id="g14"
   style="fill:#808080"
   transform="matrix(0.88774211,0,0,0.90377957,14.922463,2.6726598)">
</g>
<g
   id="g16"
   style="fill:#808080"
   transform="matrix(0.88774211,0,0,0.90377957,14.922463,2.6726598)">
</g>
<g
   id="g18"
   style="fill:#808080"
   transform="matrix(0.88774211,0,0,0.90377957,14.922463,2.6726598)">
</g>
<g
   id="g20"
   style="fill:#808080"
   transform="matrix(0.88774211,0,0,0.90377957,14.922463,2.6726598)">
</g>
<g
   id="g22"
   style="fill:#808080"
   transform="matrix(0.88774211,0,0,0.90377957,14.922463,2.6726598)">
</g>
<g
   id="g24"
   style="fill:#808080"
   transform="matrix(0.88774211,0,0,0.90377957,14.922463,2.6726598)">
</g>
<g
   id="g26"
   style="fill:#808080"
   transform="matrix(0.88774211,0,0,0.90377957,14.922463,2.6726598)">
</g>
<g
   id="g28"
   style="fill:#808080"
   transform="matrix(0.88774211,0,0,0.90377957,14.922463,2.6726598)">
</g>
<g
   id="g30"
   style="fill:#808080"
   transform="matrix(0.88774211,0,0,0.90377957,14.922463,2.6726598)">
</g>
<g
   id="g32"
   style="fill:#808080"
   transform="matrix(0.88774211,0,0,0.90377957,14.922463,2.6726598)">
</g>
<g
   id="g34"
   style="fill:#808080"
   transform="matrix(0.88774211,0,0,0.90377957,14.922463,2.6726598)">
</g>
<g
   id="g36"
   style="fill:#808080"
   transform="matrix(0.88774211,0,0,0.90377957,14.922463,2.6726598)">
</g>
</svg>
