<?xml version="1.0" encoding="UTF-8" standalone="no"?>
<!-- Generator: Adobe Illustrator 16.0.0, SVG Export Plug-In . SVG Version: 6.00 Build 0)  -->

<svg
   version="1.1"
   id="Capa_1"
   x="0px"
   y="0px"
   width="475.084px"
   height="475.084px"
   viewBox="0 0 475.084 475.084"
   style="enable-background:new 0 0 475.084 475.084;"
   xml:space="preserve"
   sodipodi:docname="github.svg"
   inkscape:version="1.1 (c68e22c387, 2021-05-23)"
   xmlns:inkscape="http://www.inkscape.org/namespaces/inkscape"
   xmlns:sodipodi="http://sodipodi.sourceforge.net/DTD/sodipodi-0.dtd"
   xmlns="http://www.w3.org/2000/svg"
   xmlns:svg="http://www.w3.org/2000/svg"><defs
   id="defs45" /><sodipodi:namedview
   id="namedview43"
   pagecolor="#ffffff"
   bordercolor="#666666"
   borderopacity="1.0"
   inkscape:pageshadow="2"
   inkscape:pageopacity="0.0"
   inkscape:pagecheckerboard="0"
   showgrid="false"
   inkscape:zoom="1.8375697"
   inkscape:cx="238.08621"
   inkscape:cy="237.54201"
   inkscape:window-width="2560"
   inkscape:window-height="1377"
   inkscape:window-x="-8"
   inkscape:window-y="-8"
   inkscape:window-maximized="1"
   inkscape:current-layer="Capa_1" />
<g
   id="g10"
   transform="matrix(0.7709054,0,0,0.82401545,54.419704,41.803811)">
	<g
   id="g8">
		<path
   d="m 436.244,146.752 c 5.14,-15.422 7.713,-31.409 7.713,-47.967 0,-22.08 -4.859,-42.828 -14.564,-62.242 -20.362,0 -38.349,3.715 -53.961,11.136 -15.604,7.423 -33.4,18.938 -53.379,34.545 -25.122,-6.09 -51.777,-9.135 -79.941,-9.135 -30.837,0 -60.245,3.333 -88.223,9.994 C 133.525,67.093 115.538,55.343 99.93,47.823 84.322,40.303 66.241,36.544 45.683,36.544 c -9.707,19.414 -14.56,40.163 -14.56,62.242 0,16.751 2.568,32.93 7.708,48.535 C 12.942,177.587 0,215.272 0,260.383 c 0,39.595 5.898,71.092 17.701,94.507 6.283,12.367 14.465,23.312 24.554,32.832 10.085,9.514 21.601,17.228 34.545,23.13 12.946,5.896 25.981,10.801 39.116,14.699 13.134,3.9 27.646,6.758 43.54,8.559 15.893,1.816 29.93,3.004 42.111,3.579 12.181,0.564 25.693,0.853 40.544,0.853 17.508,0 33.396,-0.432 47.678,-1.283 14.277,-0.855 30.594,-2.953 48.964,-6.276 18.367,-3.333 34.547,-7.857 48.54,-13.565 13.99,-5.708 27.412,-13.895 40.259,-24.551 12.847,-10.663 22.884,-23.318 30.121,-37.976 11.604,-23.603 17.412,-55.107 17.412,-94.507 -0.007,-45.302 -12.95,-83.178 -38.841,-113.632 z m -34.249,207.703 c -6.092,12.471 -13.802,22.265 -23.127,29.41 -9.329,7.139 -20.938,12.847 -34.831,17.135 -13.9,4.281 -27.217,7.087 -39.971,8.415 -12.758,1.334 -26.933,1.998 -42.545,1.998 h -47.966 c -15.607,0 -29.79,-0.664 -42.541,-1.998 -12.752,-1.328 -26.075,-4.134 -39.971,-8.415 -13.891,-4.288 -25.5,-9.996 -34.829,-17.135 -9.329,-7.146 -17.037,-16.939 -23.128,-29.41 -6.09,-12.471 -9.136,-27.076 -9.136,-43.824 0,-22.847 6.567,-42.264 19.702,-58.245 13.134,-15.99 30.929,-23.982 53.387,-23.982 8.188,0 26.746,1.997 55.677,5.995 13.513,2.093 28.456,3.14 44.823,3.14 16.372,0 31.313,-1.044 44.824,-3.14 29.317,-3.999 47.869,-5.995 55.678,-5.995 22.457,0 40.252,7.996 53.386,23.982 13.135,15.988 19.698,35.398 19.698,58.245 0,16.751 -3.046,31.364 -9.13,43.824 z"
   id="path2" />
		<path
   d="m 166.875,265.52 c -5.806,-6.475 -12.703,-9.712 -20.699,-9.712 -7.998,0 -14.896,3.241 -20.701,9.712 -5.802,6.468 -9.897,13.703 -12.275,21.689 -2.383,8.002 -3.571,15.804 -3.571,23.422 0,7.61 1.191,15.413 3.571,23.414 2.375,7.991 6.468,15.222 12.275,21.689 5.808,6.475 12.703,9.713 20.701,9.713 7.996,0 14.896,-3.244 20.699,-9.713 5.804,-6.468 9.897,-13.698 12.275,-21.689 2.38,-8.001 3.571,-15.804 3.571,-23.414 0,-7.611 -1.188,-15.42 -3.571,-23.422 -2.379,-7.983 -6.468,-15.215 -12.275,-21.689 z"
   id="path4" />
		<path
   d="m 349.601,265.52 c -5.804,-6.475 -12.703,-9.712 -20.697,-9.712 -7.991,0 -14.894,3.241 -20.701,9.712 -5.804,6.468 -9.896,13.703 -12.271,21.689 -2.385,8.002 -3.576,15.804 -3.576,23.422 0,7.61 1.191,15.413 3.576,23.414 2.375,7.991 6.468,15.222 12.271,21.689 5.808,6.475 12.71,9.713 20.701,9.713 7.994,0 14.894,-3.244 20.697,-9.713 5.801,-6.468 9.896,-13.698 12.278,-21.689 2.379,-8.001 3.569,-15.804 3.569,-23.414 0,-7.611 -1.19,-15.42 -3.569,-23.422 -2.381,-7.983 -6.477,-15.215 -12.278,-21.689 z"
   id="path6" />
	</g>
</g>
<g
   id="g12"
   transform="matrix(0.7709054,0,0,0.82401545,54.419704,41.803811)">
</g>
<g
   id="g14"
   transform="matrix(0.7709054,0,0,0.82401545,54.419704,41.803811)">
</g>
<g
   id="g16"
   transform="matrix(0.7709054,0,0,0.82401545,54.419704,41.803811)">
</g>
<g
   id="g18"
   transform="matrix(0.7709054,0,0,0.82401545,54.419704,41.803811)">
</g>
<g
   id="g20"
   transform="matrix(0.7709054,0,0,0.82401545,54.419704,41.803811)">
</g>
<g
   id="g22"
   transform="matrix(0.7709054,0,0,0.82401545,54.419704,41.803811)">
</g>
<g
   id="g24"
   transform="matrix(0.7709054,0,0,0.82401545,54.419704,41.803811)">
</g>
<g
   id="g26"
   transform="matrix(0.7709054,0,0,0.82401545,54.419704,41.803811)">
</g>
<g
   id="g28"
   transform="matrix(0.7709054,0,0,0.82401545,54.419704,41.803811)">
</g>
<g
   id="g30"
   transform="matrix(0.7709054,0,0,0.82401545,54.419704,41.803811)">
</g>
<g
   id="g32"
   transform="matrix(0.7709054,0,0,0.82401545,54.419704,41.803811)">
</g>
<g
   id="g34"
   transform="matrix(0.7709054,0,0,0.82401545,54.419704,41.803811)">
</g>
<g
   id="g36"
   transform="matrix(0.7709054,0,0,0.82401545,54.419704,41.803811)">
</g>
<g
   id="g38"
   transform="matrix(0.7709054,0,0,0.82401545,54.419704,41.803811)">
</g>
<g
   id="g40"
   transform="matrix(0.7709054,0,0,0.82401545,54.419704,41.803811)">
</g>
<path
   style="fill:#999999;stroke-width:0.433735"
   d="m 380.69008,72.302962 c -16.21247,0.432152 -32.22002,5.471326 -46.1372,14.360439 -11.18593,6.745971 -21.585,14.844399 -31.79028,23.147129 -32.31601,-8.36852 -66.01278,-9.00055 -98.94986,-5.16895 -10.28737,1.10995 -20.3628,3.67094 -30.53325,5.5079 -2.35096,-0.56612 -4.07735,-3.09726 -6.18405,-4.39118 C 151.4013,93.365604 134.91593,80.981347 115.83005,75.495375 107.26826,73.331236 98.437097,71.879303 89.619607,72.521044 81.486378,90.370771 77.650961,110.45182 78.986257,130.28133 c 0.349626,11.20372 2.350489,22.3344 5.679356,32.95505 -19.48755,24.06458 -29.432911,55.93025 -29.805168,87.55266 -0.457211,27.32369 1.565458,55.57305 12.326868,80.73725 9.978539,22.82435 28.562273,40.83102 50.303707,50.31048 17.48773,8.08072 35.85923,14.16678 54.81178,16.65836 20.5206,3.1083 41.25414,4.45718 61.97572,4.08553 16.32477,-0.23603 32.696,0.28531 48.98169,-1.12489 23.92321,-2.74321 48.1696,-6.42233 70.51192,-16.4256 22.51488,-10.40378 43.03317,-27.99923 53.65001,-52.07617 11.50596,-25.76259 13.202,-54.98744 12.74663,-83.10348 -0.50025,-30.38173 -9.73027,-60.91324 -27.80855,-84.59068 -1.34554,-1.55626 -2.2784,-3.51836 -1.03136,-5.50373 8.2628,-28.58235 6.49126,-60.552225 -5.96583,-87.459279 -1.55764,0.0032 -3.11534,-0.007 -4.67295,0.0061 z M 316.27014,229.84965 c 14.84623,-0.053 29.86246,6.47435 39.35966,18.90251 13.89578,16.90974 17.99876,40.77675 15.06092,62.5929 -2.12555,17.67607 -10.15396,34.66155 -23.14587,46.02383 -11.35276,9.98016 -25.7391,14.92786 -39.82986,18.54711 -13.41627,3.36163 -27.19259,4.79234 -40.96261,4.55427 -22.87905,0.0666 -45.76918,0.36595 -68.64222,-0.0436 -20.24271,-1.30405 -40.65925,-5.44458 -58.9956,-14.9866 -18.90869,-9.75829 -31.5336,-30.54587 -34.49353,-52.48421 -3.26088,-21.81354 0.39129,-45.75335 13.93183,-63.05135 10.03451,-13.86013 26.77454,-21.02282 42.97551,-19.94061 24.59563,0.96263 48.75114,7.69437 73.43187,7.10476 13.2155,0.29158 26.43205,-0.51243 39.50003,-2.67341 13.89568,-1.73501 27.80179,-4.28986 41.80987,-4.54558 z"
   id="path120" /><path
   style="fill:#999999;stroke-width:0.433735"
   d="m 166.6728,253.06537 c -9.42819,-0.30704 -16.65257,8.01202 -20.95737,16.14686 -5.3064,9.96092 -6.88441,21.6317 -6.22486,32.94799 0.55981,13.7901 5.69853,28.2771 16.33769,36.68253 7.54998,6.03202 18.87141,4.63627 25.38451,-2.49875 11.94661,-12.02063 15.09931,-30.88941 13.1308,-47.67042 -1.60381,-13.33585 -7.61756,-27.22378 -19.00414,-33.95201 -2.68704,-1.38643 -5.71565,-1.74585 -8.66663,-1.6562 z"
   id="path159" /><path
   style="fill:#e6e6e6;stroke-width:0.433735"
   d="m 307.26348,253.05924 c -8.719,-0.33344 -15.34645,7.17534 -19.71037,14.40458 -8.47384,14.9956 -9.21971,34.04136 -4.44141,50.52172 3.02654,9.33202 8.55642,18.53016 17.06902,22.9741 7.31779,3.44329 16.24495,1.47758 21.8546,-4.55608 11.34878,-11.67151 15.12221,-29.70008 13.41577,-45.99878 -1.39475,-12.72066 -6.28524,-25.76217 -16.08122,-33.6723 -3.61402,-2.62526 -7.70912,-4.04147 -12.10639,-3.67324 z"
   id="path198" /><path
   style="fill:#e6e6e6;stroke-width:0.433735"
   d="m 166.47615,253.4665 c -8.06865,-0.39651 -14.3235,6.20102 -18.64261,12.73724 -9.13883,14.50832 -10.12706,33.56346 -5.78333,50.05637 2.96555,10.55228 9.31244,21.03226 19.20893,25.23817 8.23701,2.49126 17.3972,-1.12925 22.45521,-8.43954 9.15787,-11.52018 11.93399,-27.37568 10.48147,-42.10146 -0.9501,-13.71761 -6.86354,-28.03878 -18.15254,-35.42557 -2.88381,-1.79969 -6.29568,-2.12685 -9.56713,-2.06521 z"
   id="path274" /><path
   style="fill:#e6e6e6;stroke-width:0.433735"
   d="m 383.36046,72.314348 c -13.79616,0.537391 -27.64274,3.315764 -40.10431,9.857377 -14.56981,7.199113 -27.33266,17.763713 -40.32967,27.640555 -8.94529,-1.57467 -17.78019,-4.04534 -26.83956,-4.96978 -20.57669,-2.37032 -41.37706,-2.5699 -62.01669,-1.06082 -13.8169,1.13552 -27.44585,3.91587 -41.03982,6.68485 -17.35656,-12.703041 -34.14704,-27.442525 -54.69105,-33.854522 -9.24694,-2.993883 -18.941862,-4.204936 -28.588651,-3.86675 -8.825404,19.483857 -12.26896,41.547002 -10.146738,63.053612 0.87673,9.31251 2.354005,18.63566 5.371369,27.45327 -20.088253,24.80043 -29.941415,57.8491 -29.93864,90.40792 -0.23106,28.33624 2.387058,57.80892 15.056171,83.21053 10.160261,19.34901 26.401031,35.03584 45.529419,43.70846 19.02503,9.23554 39.30329,15.46971 60.05549,18.16267 18.20567,2.5642 36.57457,3.8658 54.93972,3.42324 17.26265,-0.22309 34.55202,0.0539 51.79443,-0.85791 29.20935,-3.3973 59.36539,-8.03986 85.16682,-24.08194 19.37378,-12.10931 35.73164,-30.73319 43.21631,-53.61486 9.30813,-26.11266 9.59412,-54.53653 8.70048,-82.08895 -1.69246,-27.70648 -11.39697,-54.79034 -27.54302,-76.55427 -2.82574,-2.71771 -0.26475,-6.41247 0.28299,-9.53626 6.67372,-26.87034 4.84532,-56.482523 -6.56521,-81.602106 -0.47481,-0.910995 -1.20755,-1.837413 -2.30984,-1.514316 z M 317.79337,229.76732 c 16.77726,-0.01 33.14369,9.58716 42.19718,24.6844 8.06337,12.6557 11.85256,28.05628 11.52477,43.30214 0.84803,23.65844 -8.54169,48.22839 -26.80519,62.25078 -14.48606,10.78151 -32.0405,15.57057 -49.23947,18.5792 -17.67671,2.99223 -35.63089,1.79786 -53.44897,2.15005 -16.63245,-0.13103 -33.28967,0.27332 -49.90508,-0.55901 -5.35973,-0.49207 -10.74474,-1.33026 -15.97091,-2.35141 -11.0491,-1.49006 -21.69723,-5.47645 -32.04528,-9.75327 -17.85867,-7.2675 -31.6204,-23.99882 -37.07865,-43.44777 -4.24967,-14.48543 -4.41839,-30.12996 -1.90762,-44.9834 3.52068,-17.24071 12.83322,-33.97441 27.47066,-42.823 11.44971,-7.27571 25.24466,-7.89381 38.16197,-6.42949 8.11304,0.7771 16.24459,1.79823 24.24884,3.21694 1.556,-0.17071 3.09028,0.49751 4.43779,0.72956 11.51319,0.91385 22.98742,2.79335 34.57138,2.50485 15.03497,0.36393 30.03926,-0.94845 44.91289,-3.22938 12.91234,-1.64071 25.84285,-3.85429 38.87569,-3.84119 z"
   id="path313" /><path
   style="fill:#000000;stroke-width:0.544197"
   d="m 380.39373,72.817178 c -13.80226,0.894332 -27.52208,4.273215 -39.61797,11.126279 -13.58445,7.119887 -25.55068,16.868083 -37.66757,26.173543 -17.07009,-3.70995 -34.38084,-6.4565 -51.8802,-6.7707 -25.1871,-1.21581 -50.39001,1.55585 -75.03038,6.70055 -4.73968,1.47265 -8.05265,-3.55035 -11.72208,-5.60346 C 146.21745,90.879016 126.87246,76.159881 103.49416,73.675989 98.995266,73.121936 94.459658,73.015206 89.938128,72.761908 82.523801,89.814587 78.860234,108.41493 79.511227,127.00942 c 0.29448,12.21519 1.979606,24.52605 5.840553,36.14022 -20.363838,25.80597 -30.371596,58.97193 -29.817718,91.67589 -0.499799,28.52201 2.519109,58.15087 15.993837,83.7575 10.4461,19.51724 27.868309,34.86896 48.206461,43.47041 22.11669,10.44656 46.23078,16.07349 70.54567,18.07914 25.20465,2.92739 50.60867,1.41669 75.90919,1.2842 24.69848,-0.17279 49.38395,-4.1988 72.96018,-11.51297 24.99927,-7.8792 47.85878,-23.80499 61.78139,-46.26357 15.12277,-24.62278 18.5016,-54.34027 18.54469,-82.68394 0.0898,-17.33619 -0.6529,-34.90008 -5.96275,-51.54804 -4.64583,-16.44253 -12.83129,-31.6106 -22.54435,-45.57944 -1.36455,-3.50095 1.10198,-7.39006 1.50504,-10.94665 3.53298,-15.59243 3.93866,-31.88507 1.94933,-47.71822 -1.8196,-11.202369 -4.65722,-22.4093 -9.94754,-32.513645 -1.36049,0.05562 -2.72098,0.111249 -4.08148,0.166873 z M 161.02599,229.71918 c 21.48846,0.49422 42.511,5.89835 64.00162,6.54312 24.84954,1.80583 49.49288,-2.53972 74.06466,-5.50922 13.36388,-1.2049 27.73083,-2.72015 40.00626,4.00205 19.05405,9.55369 29.64558,30.58877 32.05742,51.06171 0.12909,10.07079 0.9334,20.29341 -0.73736,30.26885 -3.72765,19.91887 -15.0337,39.1172 -33.16097,49.02908 -17.80192,9.95204 -38.33,14.14389 -58.52432,15.39094 -28.96147,0.43127 -57.94864,0.63276 -86.90204,-0.1966 -20.63414,-1.90043 -41.33439,-7.20932 -59.09501,-18.15129 -16.76801,-11.71979 -26.49452,-31.44222 -28.79559,-51.44631 -0.39893,-14.41569 -1.26021,-29.42351 4.38963,-43.04947 6.37906,-17.84584 21.11181,-34.30317 40.58978,-37.17169 4.00033,-0.63184 8.06054,-0.80955 12.10592,-0.77117 z"
   id="path85" /><path
   style="fill:#000000;stroke-width:0.544197"
   d="m 165.70694,253.88174 c -9.4542,0.18095 -15.56932,9.03923 -19.72077,16.4981 -8.14345,16.15594 -7.75794,35.88002 -1.18618,52.50332 3.40421,7.89861 9.34067,15.46826 17.55355,18.6058 6.64298,1.01134 13.76421,-0.62943 18.44619,-5.70033 9.95413,-10.31829 13.79836,-25.2375 13.2501,-39.29052 0.29378,-15.3173 -5.35189,-32.01489 -18.56541,-40.78608 -2.95686,-1.70163 -6.44435,-1.92069 -9.77748,-1.83029 z"
   id="path124" /><path
   style="fill:#000000;stroke-width:0.544197"
   d="m 307.94431,253.31735 c -9.20133,-0.23179 -15.71733,7.53788 -20.15017,14.66993 -9.6136,17.28131 -9.45163,39.2243 -1.33817,57.04609 4.20525,9.11032 12.84157,18.77006 23.89046,17.04549 10.6298,-1.44984 16.68592,-11.83913 20.71244,-20.72838 6.86903,-17.27991 5.76779,-37.8575 -3.32364,-54.13485 -4.1968,-7.03941 -10.91957,-14.13243 -19.79092,-13.89828 z"
   id="path202" /></svg>
