<?xml version="1.0" encoding="UTF-8" standalone="no"?>
<svg
   width="24"
   height="24"
   viewBox="0 0 24 24"
   fill="none"
   version="1.1"
   id="svg4"
   sodipodi:docname="github.svg"
   inkscape:version="1.1 (c68e22c387, 2021-05-23)"
   xmlns:inkscape="http://www.inkscape.org/namespaces/inkscape"
   xmlns:sodipodi="http://sodipodi.sourceforge.net/DTD/sodipodi-0.dtd"
   xmlns="http://www.w3.org/2000/svg"
   xmlns:svg="http://www.w3.org/2000/svg">
  <defs
     id="defs8" />
  <sodipodi:namedview
     id="namedview6"
     pagecolor="#ffffff"
     bordercolor="#666666"
     borderopacity="1.0"
     inkscape:pageshadow="2"
     inkscape:pageopacity="0.0"
     inkscape:pagecheckerboard="0"
     showgrid="false"
     inkscape:zoom="36.375"
     inkscape:cx="12"
     inkscape:cy="12"
     inkscape:window-width="2560"
     inkscape:window-height="1377"
     inkscape:window-x="-8"
     inkscape:window-y="-8"
     inkscape:window-maximized="1"
     inkscape:current-layer="svg4" />
  <path
     d="M 9.0984502,14.711231 C 2.6736505,13.627932 3.1678657,8.7530965 5.1446782,7.1281514 4.754557,6.4690195 4.1562477,3.8782612 4.6504532,2.7949752 c 0.9884307,0.5416374 2.3150769,1.3426704 2.9653312,2.1665825 1.9768213,-1.0832965 4.9420566,-1.0832965 6.4247216,0 0.39017,-0.878846 1.82089,-1.7088571 2.471076,-2.1665934 0.585206,0.6591318 0.162547,3.2346374 0,4.3331871 0.975279,2.3801981 1.482666,5.9581336 -3.953741,7.5830796 0.804075,0.724507 2.097638,2.453883 2.997237,4.429924 0.637541,1.400486 -0.581218,2.687442 -1.969624,2.413911 -0.969346,-0.190987 -2.045304,-0.344057 -3.004437,-0.344057 -1.1614623,0 -2.6988942,0.224352 -4.0294506,0.46896 C 5.175495,21.93281 4.0624747,20.612165 4.7683117,19.272559 5.2807369,18.299976 5.9268275,17.389682 6.6273533,16.877822 6.3835238,16.51167 5.4176612,15.457295 3.662081,16.336174 1.4676061,17.434746 0.20914013,15.00112 0.69679913,13.627932"
     stroke="#000000"
     stroke-linecap="round"
     stroke-linejoin="round"
     id="path2"
     style="stroke-width:1.02655" />
  <path
     style="fill:#cccccc;stroke-width:0.0282207"
     d="M 4.6180907,2.269777 C 4.2552561,2.313604 4.1331021,2.7756724 4.0641979,3.1133977 c -0.1707707,0.9634728 -0.00451,1.9549076 0.1960445,2.8962681 0.075994,0.3343237 0.1773447,0.6606168 0.2913582,0.9810378 -0.8131095,0.8957646 -1.2882942,2.1916212 -1.16637,3.4701684 0.083499,1.37732 0.8983534,2.580881 1.9121545,3.316732 1.1272749,0.826022 2.4574965,1.243271 3.7825901,1.450902 0.3482965,0.03529 0.6452325,-0.477675 0.4035885,-0.796592 C 9.3287077,14.135114 8.981804,14.184242 8.7232215,14.103503 7.5389915,13.84757 6.3320885,13.439315 5.401492,12.546003 4.6136135,11.85224 4.1606871,10.686515 4.3448503,9.573133 4.455225,8.7962094 4.8376125,8.0882656 5.3776831,7.5863306 5.5399252,7.4367372 5.6902011,7.1983399 5.575119,6.9592352 5.1481919,5.9116413 4.8917474,4.753724 4.9593159,3.5982466 4.9932213,3.5098399 5.13192,3.6940891 5.1958032,3.6966159 5.9553206,4.1533489 6.7007338,4.6608902 7.3171267,5.3414441 7.4986194,5.5626366 7.7772786,5.4763346 7.9825858,5.3521032 9.0400282,4.8308393 10.216088,4.639205 11.366923,4.6885877 c 0.854062,0.05039 1.725298,0.2305793 2.464244,0.7339944 0.234263,0.1441512 0.529504,0.0086 0.642492,-0.2517281 0.378082,-0.6221938 0.97399,-1.0234216 1.531884,-1.4205067 0.09715,-0.050977 0.201518,-0.1599701 0.303827,-0.1662403 0.07377,1.0938076 -0.07696,2.1829494 -0.229548,3.2603674 -0.04776,0.2141264 -0.03822,0.4316902 0.05572,0.6294015 0.433403,1.114428 0.716704,2.4056604 0.341767,3.5912861 -0.374475,1.173782 -1.339104,1.957351 -2.320206,2.457776 -0.581426,0.313123 -1.207086,0.499296 -1.814922,0.732435 -0.275457,0.148411 -0.348949,0.616358 -0.09344,0.830271 1.1227,1.163047 2.055835,2.548055 2.775198,4.054584 0.146027,0.268688 0.244105,0.56984 0.218211,0.888249 -0.0694,0.573354 -0.587863,0.970108 -1.082815,1.015573 -0.635577,0.04091 -1.253213,-0.184607 -1.883497,-0.239906 C 10.437277,20.572316 8.5805072,20.7712 6.7632986,21.111231 6.2759489,21.196703 5.6907844,21.246699 5.3170206,20.81283 5.1096543,20.619399 5.0065273,20.324012 5.0422588,20.025628 5.0511859,19.614043 5.3325853,19.296503 5.5080028,18.956754 5.8951814,18.30782 6.3666544,17.717439 6.9348486,17.259277 7.1773857,17.043789 7.1128519,16.612886 6.8887019,16.40995 6.3973876,15.83735 5.701601,15.460806 4.9815718,15.483135 4.3162727,15.432071 3.7068145,15.772493 3.0941929,16.002689 2.5871662,16.15527 1.9768278,16.087751 1.6065045,15.632067 1.1442914,15.154384 0.94321383,14.381185 1.1569523,13.710994 1.2393085,13.304889 0.74252613,12.916068 0.44076103,13.203375 0.1485676,13.474987 0.13530824,13.95346 0.12434584,14.345421 c 0.0245459,1.323173 0.94822986,2.594741 2.14752906,2.76821 0.6570399,0.108166 1.2937357,-0.165389 1.8930078,-0.42927 0.544932,-0.216942 1.1934928,-0.241175 1.6928059,0.120056 -0.053586,0.189273 -0.2432252,0.30735 -0.3502159,0.465587 -0.5146892,0.647517 -1.0004594,1.346932 -1.311356,2.144528 -0.2843972,0.801931 -0.017285,1.7718 0.6009174,2.282288 0.5019333,0.438467 1.1681632,0.626512 1.7968513,0.499802 1.6972636,-0.268268 3.4150836,-0.591578 5.1336216,-0.391477 0.727213,0.05028 1.438027,0.253372 2.165068,0.297271 1.023645,0.07775 2.107988,-0.711301 2.280289,-1.875749 0.110433,-0.611337 -0.122968,-1.203189 -0.389553,-1.721921 -0.601323,-1.23686 -1.351145,-2.377882 -2.18875,-3.428519 -0.126004,-0.103272 -0.05899,-0.170966 0.06867,-0.195066 1.179982,-0.489359 2.367366,-1.159976 3.137996,-2.307907 0.511996,-0.759924 0.814779,-1.704995 0.783464,-2.6603135 0.03387,-0.9928665 -0.251433,-1.9542363 -0.583263,-2.862267 0.151998,-0.9939109 0.292783,-1.9962123 0.259218,-3.0080314 0.0187,-0.57022 -0.06339,-1.199068 -0.43586,-1.6239583 C 16.665228,2.2294677 16.400561,2.2354095 16.223996,2.391629 15.386897,2.9140903 14.562959,3.4869917 13.883921,4.2504699 13.015096,3.8372359 12.072262,3.6229639 11.126856,3.6391959 9.9618797,3.5958938 8.7952546,3.8466699 7.7158064,4.3313215 6.8868385,3.4973496 5.8930131,2.89786 4.8950587,2.3540175 4.8076551,2.3079117 4.7177314,2.260314 4.6180907,2.269777 Z"
     id="path1123" />
  <path
     style="fill:#808080;stroke-width:0.0274914"
     d="m 4.6182345,2.2891967 c -0.3535461,0.06722 -0.4543566,0.477798 -0.5291021,0.7774914 -0.099097,0.5284795 -0.058501,1.0726356 -0.040537,1.6070357 0.088339,0.7863282 0.2622716,1.5642446 0.5184148,2.313121 -0.8589484,0.9826626 -1.312417,2.3223357 -1.152662,3.6244362 0.1314285,1.266188 0.8822144,2.408506 1.9007827,3.148814 0.8895634,0.670707 1.952786,1.058816 3.0264176,1.319587 0.3051725,0.04168 0.6199216,0.170691 0.9297144,0.09241 0.286639,-0.150053 0.3693895,-0.56926 0.1448669,-0.810193 C 9.1907871,14.137776 8.8348465,14.173343 8.5506337,14.075548 7.7484415,13.897247 6.9558867,13.635202 6.2501611,13.207206 5.3543816,12.678634 4.5741674,11.83205 4.3726375,10.782109 4.1913111,9.8951005 4.3523359,8.9383043 4.8591601,8.1826675 5.0625207,7.8261245 5.4368162,7.5898436 5.5935351,7.2067761 5.6096899,6.9620869 5.4512748,6.7369674 5.392753,6.503266 5.0672308,5.5819118 4.894748,4.5990637 4.9627362,3.6212951 4.9812553,3.5002682 5.1290463,3.6701574 5.1879552,3.6768202 5.9713141,4.1323553 6.7038161,4.6768346 7.3388102,5.3248498 7.4566777,5.4757399 7.6527071,5.4907436 7.819319,5.4158076 8.186295,5.2380838 8.5676849,5.060618 8.9623604,4.96875 9.5745949,4.7613602 10.242098,4.6809361 10.892612,4.6884128 c 0.98789,-0.024962 2.014418,0.1326915 2.864436,0.6651627 0.16998,0.1327376 0.420614,0.144452 0.570594,-0.025773 0.254862,-0.3272849 0.485052,-0.6808129 0.814041,-0.943007 0.363144,-0.2968842 0.737745,-0.5971522 1.154816,-0.8106443 0.06998,0.1479384 0.01446,0.3456756 0.03046,0.5099759 0.0098,0.8913195 -0.08595,1.7779959 -0.220427,2.657872 -0.06643,0.304721 -0.02528,0.6178067 0.107877,0.8989151 0.41496,1.1358986 0.640926,2.4249928 0.219013,3.5920648 -0.40667,1.038999 -1.295486,1.833608 -2.289465,2.301224 -0.05043,-0.0116 -0.04277,0.05031 -0.09531,0.03635 -0.208737,0.162986 -0.491614,0.2306 -0.735606,0.339302 -0.337956,0.144921 -0.706908,0.229337 -1.025509,0.412953 -0.219308,0.186517 -0.248045,0.553459 -0.02121,0.749141 1.212029,1.29 2.216352,2.782632 2.914465,4.410814 0.211806,0.514577 -0.02839,1.139504 -0.510873,1.406013 -0.405257,0.252227 -0.913077,0.157059 -1.360529,0.101075 -0.833871,-0.178959 -1.687458,-0.262528 -2.541021,-0.25597 -0.8208329,-0.02545 -1.6398655,0.03678 -2.4536227,0.14085 -0.6470189,0.05926 -1.2762117,0.243056 -1.9251811,0.281161 -0.3206221,0.01214 -0.6740398,0.02951 -0.931711,-0.198956 C 5.1641963,20.748301 4.9779304,20.39055 5.0392212,20.027531 5.0586636,19.524126 5.4110131,19.125725 5.6494793,18.707154 5.9933207,18.153864 6.4289177,17.664605 6.9188146,17.237328 7.1826158,16.987042 7.0575431,16.553255 6.801821,16.345846 6.344662,15.835747 5.6885089,15.490404 4.9936137,15.503762 4.5026961,15.462329 4.0410089,15.645991 3.5889177,15.808151 3.2793922,15.955631 2.9518675,16.09737 2.5986901,16.078198 2.1139747,16.103395 1.6664601,15.818189 1.4139898,15.416056 1.0457974,14.902293 1.0114264,14.230664 1.1439003,13.631658 1.1623844,13.363824 0.89742065,13.105676 0.63573883,13.120436 0.22214704,13.27832 0.16359229,13.786958 0.14320232,14.172251 c -0.04554744,1.193304 0.66272593,2.45119 1.81915808,2.85422 0.3305538,0.09645 0.6916613,0.11328 1.0307794,0.06219 0.5511368,-0.130214 1.0527964,-0.413467 1.6041353,-0.537784 0.4223703,-0.06341 0.9007461,-0.03433 1.2466361,0.236704 -0.013514,0.223622 -0.2482513,0.361876 -0.358041,0.543638 -0.5522985,0.714146 -1.0936456,1.47312 -1.3496481,2.349672 -0.076453,0.539257 -0.00939,1.120077 0.3090098,1.576353 0.4618493,0.710756 1.3711574,1.09917 2.2029638,0.916076 1.6539594,-0.255439 3.3277752,-0.56697 5.0071763,-0.383214 0.841201,0.05745 1.663665,0.311172 2.509845,0.294672 1.137984,-0.07751 2.101134,-1.165839 2.012188,-2.308741 -0.0783,-0.78009 -0.511688,-1.462298 -0.871293,-2.139851 -0.495505,-0.888077 -1.092008,-1.712898 -1.692925,-2.531111 -0.05821,-0.06751 -0.13641,-0.1934 0.004,-0.223046 1.115299,-0.457458 2.203421,-1.079985 2.96236,-2.039143 0.447183,-0.578209 0.765243,-1.26271 0.916828,-1.977985 0.08537,-0.624733 0.06747,-1.2622157 0.01485,-1.8892524 C 17.438111,8.298601 17.166208,7.6610208 16.991823,7.0126285 17.159635,5.9575579 17.277339,4.8909369 17.233999,3.8209837 17.234919,3.3070848 17.13637,2.7385345 16.740603,2.3752685 16.537954,2.1949845 16.274272,2.3565301 16.099024,2.4912866 15.310681,2.977557 14.574317,3.548861 13.927889,4.212951 13.818183,4.3197004 13.729758,4.1421138 13.619416,4.1427191 12.814608,3.8328187 11.960349,3.6194921 11.092408,3.6542096 10.263893,3.6398206 9.429197,3.7329605 8.642803,4.0016143 8.391788,4.0930753 8.126877,4.1397051 7.8946521,4.2731422 7.7300511,4.4152809 7.6170298,4.2557091 7.4960267,4.1428264 6.6795585,3.4155487 5.7543035,2.8114293 4.7764712,2.3251181 4.7261042,2.3055518 4.6731052,2.286682 4.6182345,2.2891967 Z"
     id="path953" />
</svg>
