<?xml version="1.0" encoding="UTF-8" standalone="no"?>
<svg
   width="24"
   height="24"
   viewBox="0 0 24 24"
   fill="none"
   version="1.1"
   id="svg4"
   sodipodi:docname="github-inactive.svg"
   inkscape:version="1.2 (dc2aedaf03, 2022-05-15)"
   xmlns:inkscape="http://www.inkscape.org/namespaces/inkscape"
   xmlns:sodipodi="http://sodipodi.sourceforge.net/DTD/sodipodi-0.dtd"
   xmlns="http://www.w3.org/2000/svg"
   xmlns:svg="http://www.w3.org/2000/svg">
  <defs
     id="defs8" />
  <sodipodi:namedview
     id="namedview6"
     pagecolor="#ffffff"
     bordercolor="#666666"
     borderopacity="1.0"
     inkscape:pageshadow="2"
     inkscape:pageopacity="0.0"
     inkscape:pagecheckerboard="0"
     showgrid="false"
     inkscape:zoom="36.375"
     inkscape:cx="12.013746"
     inkscape:cy="12.013746"
     inkscape:window-width="5120"
     inkscape:window-height="1369"
     inkscape:window-x="-8"
     inkscape:window-y="-8"
     inkscape:window-maximized="1"
     inkscape:current-layer="svg4"
     inkscape:showpageshadow="2"
     inkscape:deskcolor="#d1d1d1" />
  <path
     d="M 9.0984502,14.711231 C 2.6736505,13.627932 3.1678657,8.7530965 5.1446782,7.1281514 4.754557,6.4690195 4.1562477,3.8782612 4.6504532,2.7949752 c 0.9884307,0.5416374 2.3150769,1.3426704 2.9653312,2.1665825 1.9768213,-1.0832965 4.9420566,-1.0832965 6.4247216,0 0.39017,-0.878846 1.82089,-1.7088571 2.471076,-2.1665934 0.585206,0.6591318 0.162547,3.2346374 0,4.3331871 0.975279,2.3801981 1.482666,5.9581336 -3.953741,7.5830796 0.804075,0.724507 2.097638,2.453883 2.997237,4.429924 0.637541,1.400486 -0.581218,2.687442 -1.969624,2.413911 -0.969346,-0.190987 -2.045304,-0.344057 -3.004437,-0.344057 -1.1614623,0 -2.6988942,0.224352 -4.0294506,0.46896 C 5.175495,21.93281 4.0624747,20.612165 4.7683117,19.272559 5.2807369,18.299976 5.9268275,17.389682 6.6273533,16.877822 6.3835238,16.51167 5.4176612,15.457295 3.662081,16.336174 1.4676061,17.434746 0.20914013,15.00112 0.69679913,13.627932"
     stroke="#000000"
     stroke-linecap="round"
     stroke-linejoin="round"
     id="path2"
     style="stroke-width:1.02655" />
  <path
     style="fill:#cccccc;stroke-width:0.0282207"
     d="M 4.6180907,2.269777 C 4.2552561,2.313604 4.1331021,2.7756724 4.0641979,3.1133977 c -0.1707707,0.9634728 -0.00451,1.9549076 0.1960445,2.8962681 0.075994,0.3343237 0.1773447,0.6606168 0.2913582,0.9810378 -0.8131095,0.8957646 -1.2882942,2.1916212 -1.16637,3.4701684 0.083499,1.37732 0.8983534,2.580881 1.9121545,3.316732 1.1272749,0.826022 2.4574965,1.243271 3.7825901,1.450902 0.3482965,0.03529 0.6452325,-0.477675 0.4035885,-0.796592 C 9.3287077,14.135114 8.981804,14.184242 8.7232215,14.103503 7.5389915,13.84757 6.3320885,13.439315 5.401492,12.546003 4.6136135,11.85224 4.1606871,10.686515 4.3448503,9.573133 4.455225,8.7962094 4.8376125,8.0882656 5.3776831,7.5863306 5.5399252,7.4367372 5.6902011,7.1983399 5.575119,6.9592352 5.1481919,5.9116413 4.8917474,4.753724 4.9593159,3.5982466 4.9932213,3.5098399 5.13192,3.6940891 5.1958032,3.6966159 5.9553206,4.1533489 6.7007338,4.6608902 7.3171267,5.3414441 7.4986194,5.5626366 7.7772786,5.4763346 7.9825858,5.3521032 9.0400282,4.8308393 10.216088,4.639205 11.366923,4.6885877 c 0.854062,0.05039 1.725298,0.2305793 2.464244,0.7339944 0.234263,0.1441512 0.529504,0.0086 0.642492,-0.2517281 0.378082,-0.6221938 0.97399,-1.0234216 1.531884,-1.4205067 0.09715,-0.050977 0.201518,-0.1599701 0.303827,-0.1662403 0.07377,1.0938076 -0.07696,2.1829494 -0.229548,3.2603674 -0.04776,0.2141264 -0.03822,0.4316902 0.05572,0.6294015 0.433403,1.114428 0.716704,2.4056604 0.341767,3.5912861 -0.374475,1.173782 -1.339104,1.957351 -2.320206,2.457776 -0.581426,0.313123 -1.207086,0.499296 -1.814922,0.732435 -0.275457,0.148411 -0.348949,0.616358 -0.09344,0.830271 1.1227,1.163047 2.055835,2.548055 2.775198,4.054584 0.146027,0.268688 0.244105,0.56984 0.218211,0.888249 -0.0694,0.573354 -0.587863,0.970108 -1.082815,1.015573 -0.635577,0.04091 -1.253213,-0.184607 -1.883497,-0.239906 C 10.437277,20.572316 8.5805072,20.7712 6.7632986,21.111231 6.2759489,21.196703 5.6907844,21.246699 5.3170206,20.81283 5.1096543,20.619399 5.0065273,20.324012 5.0422588,20.025628 5.0511859,19.614043 5.3325853,19.296503 5.5080028,18.956754 5.8951814,18.30782 6.3666544,17.717439 6.9348486,17.259277 7.1773857,17.043789 7.1128519,16.612886 6.8887019,16.40995 6.3973876,15.83735 5.701601,15.460806 4.9815718,15.483135 4.3162727,15.432071 3.7068145,15.772493 3.0941929,16.002689 2.5871662,16.15527 1.9768278,16.087751 1.6065045,15.632067 1.1442914,15.154384 0.94321383,14.381185 1.1569523,13.710994 1.2393085,13.304889 0.74252613,12.916068 0.44076103,13.203375 0.1485676,13.474987 0.13530824,13.95346 0.12434584,14.345421 c 0.0245459,1.323173 0.94822986,2.594741 2.14752906,2.76821 0.6570399,0.108166 1.2937357,-0.165389 1.8930078,-0.42927 0.544932,-0.216942 1.1934928,-0.241175 1.6928059,0.120056 -0.053586,0.189273 -0.2432252,0.30735 -0.3502159,0.465587 -0.5146892,0.647517 -1.0004594,1.346932 -1.311356,2.144528 -0.2843972,0.801931 -0.017285,1.7718 0.6009174,2.282288 0.5019333,0.438467 1.1681632,0.626512 1.7968513,0.499802 1.6972636,-0.268268 3.4150836,-0.591578 5.1336216,-0.391477 0.727213,0.05028 1.438027,0.253372 2.165068,0.297271 1.023645,0.07775 2.107988,-0.711301 2.280289,-1.875749 0.110433,-0.611337 -0.122968,-1.203189 -0.389553,-1.721921 -0.601323,-1.23686 -1.351145,-2.377882 -2.18875,-3.428519 -0.126004,-0.103272 -0.05899,-0.170966 0.06867,-0.195066 1.179982,-0.489359 2.367366,-1.159976 3.137996,-2.307907 0.511996,-0.759924 0.814779,-1.704995 0.783464,-2.6603135 0.03387,-0.9928665 -0.251433,-1.9542363 -0.583263,-2.862267 0.151998,-0.9939109 0.292783,-1.9962123 0.259218,-3.0080314 0.0187,-0.57022 -0.06339,-1.199068 -0.43586,-1.6239583 C 16.665228,2.2294677 16.400561,2.2354095 16.223996,2.391629 15.386897,2.9140903 14.562959,3.4869917 13.883921,4.2504699 13.015096,3.8372359 12.072262,3.6229639 11.126856,3.6391959 9.9618797,3.5958938 8.7952546,3.8466699 7.7158064,4.3313215 6.8868385,3.4973496 5.8930131,2.89786 4.8950587,2.3540175 4.8076551,2.3079117 4.7177314,2.260314 4.6180907,2.269777 Z"
     id="path1123" />
  <path
     style="fill:#ff5555;stroke-width:0.0274914"
     d="M 5.7864998,22.171176 C 5.1470419,22.028348 4.6117682,21.618141 4.3270169,21.0527 4.1655302,20.732031 4.1117259,20.489422 4.111846,20.082474 c 1.1e-4,-0.329987 0.0068,-0.376771 0.087438,-0.610199 0.2347964,-0.67969 0.7928434,-1.566935 1.5441691,-2.455093 0.044768,-0.05292 0.089481,-0.129481 0.099363,-0.170135 0.016636,-0.06844 0.00577,-0.08007 -0.1466524,-0.157014 -0.090541,-0.0457 -0.1937534,-0.08937 -0.2293611,-0.09703 -0.035608,-0.0077 -0.114226,-0.0264 -0.1747071,-0.04164 -0.1826053,-0.04602 -0.5886675,-0.03442 -0.8142111,0.02326 -0.1124473,0.02876 -0.3711272,0.120373 -0.5748443,0.203587 -0.2037171,0.08321 -0.481735,0.183874 -0.6178174,0.223689 -0.1360825,0.03981 -0.2793774,0.08243 -0.3184327,0.0947 -0.121348,0.03812 -0.7113186,0.01477 -0.8911893,-0.03527 -0.8117151,-0.225814 -1.48580335,-0.924986 -1.78987226,-1.856476 -0.22854856,-0.700139 -0.17922226,-1.591512 0.1060498,-1.916418 0.0936892,-0.106706 0.20894298,-0.175037 0.29523626,-0.175037 0.0876143,0 0.2599004,0.09761 0.3397221,0.192473 0.120212,0.142864 0.1441676,0.272281 0.091099,0.49215 -0.027578,0.11426 -0.045672,0.303002 -0.045672,0.476425 0,0.502571 0.154686,0.935046 0.4672638,1.306388 0.26915,0.31975 0.5555123,0.468615 0.9509649,0.494357 0.229064,0.01491 0.5395511,-0.02462 0.6848641,-0.0872 0.045361,-0.01953 0.1381444,-0.0585 0.2061856,-0.0866 0.068041,-0.0281 0.1298969,-0.05761 0.137457,-0.06559 0.00756,-0.008 0.032302,-0.01852 0.054983,-0.02342 0.02268,-0.0049 0.1896907,-0.06259 0.371134,-0.128187 0.4162345,-0.150483 0.5979175,-0.183036 1.0102666,-0.181013 0.7078029,0.0035 1.2382956,0.233415 1.7751033,0.769421 0.2649042,0.264509 0.3339354,0.390309 0.3331488,0.607117 -7.422e-4,0.205028 -0.052224,0.288255 -0.3281407,0.530494 -0.4770307,0.418806 -0.8610667,0.90654 -1.3300833,1.689234 -0.3042573,0.507745 -0.3531772,0.634911 -0.3675852,0.95553 -0.010572,0.235256 -0.00369,0.297854 0.047737,0.43394 0.083555,0.221122 0.3095346,0.459789 0.5452674,0.575882 0.1766903,0.08702 0.1940714,0.08997 0.5541905,0.09427 0.3424066,0.0041 0.6902081,-0.03819 1.1552844,-0.140442 0.037801,-0.0083 0.1243986,-0.0219 0.1924398,-0.03019 0.068041,-0.0083 0.1546392,-0.02089 0.1924399,-0.028 0.037801,-0.0071 0.093471,-0.01753 0.1237114,-0.02316 0.242199,-0.04508 1.4204164,-0.171892 1.7869415,-0.19233 0.3953736,-0.02205 1.6868166,-0.01389 2.0194166,0.01275 0.402869,0.03227 1.045399,0.104723 1.071427,0.120809 0.0099,0.0061 0.06698,0.01777 0.126821,0.02586 0.05984,0.0081 0.159879,0.02724 0.222313,0.04253 0.06243,0.0153 0.167588,0.03462 0.233677,0.04294 0.06609,0.0083 0.212944,0.02826 0.326346,0.04431 0.215275,0.03047 0.686953,0.01736 0.7481,-0.02079 0.01947,-0.01215 0.05959,-0.02585 0.08914,-0.03044 0.08239,-0.01281 0.287046,-0.140673 0.417238,-0.260679 0.316687,-0.291912 0.434972,-0.703608 0.326305,-1.135716 -0.02266,-0.09012 -0.153746,-0.392718 -0.291297,-0.672443 -0.678425,-1.379656 -1.533517,-2.630293 -2.52226,-3.688997 -0.286178,-0.306427 -0.333019,-0.411129 -0.279389,-0.624511 0.04134,-0.164481 0.133848,-0.283041 0.265451,-0.340208 0.0582,-0.02528 0.354104,-0.137814 0.657568,-0.250076 0.60681,-0.224479 1.001511,-0.39591 1.001511,-0.434989 0,-0.01391 0.01237,-0.01764 0.02749,-0.0083 0.01512,0.0093 0.02749,0.0018 0.02749,-0.0167 0,-0.01853 0.0082,-0.02546 0.01831,-0.01539 0.02276,0.02276 0.359362,-0.159834 0.667096,-0.361862 0.876704,-0.575558 1.505362,-1.377681 1.734114,-2.21261 0.257227,-0.938854 0.14685,-2.1009716 -0.317736,-3.3453257 -0.161228,-0.4318367 -0.160855,-0.4258332 -0.06796,-1.0943536 0.14864,-1.069683 0.170194,-1.3190229 0.185225,-2.1427598 0.01322,-0.7245717 0.01033,-0.8041237 -0.02927,-0.8041237 -0.06153,0 -0.634124,0.3906344 -0.985328,0.6722078 -0.349265,0.2800187 -0.60144,0.5485265 -0.814555,0.8673111 -0.121319,0.1814741 -0.183855,0.2478512 -0.27993,0.2971255 -0.163703,0.083959 -0.245475,0.068525 -0.531262,-0.1002772 -0.528259,-0.3120183 -1.025412,-0.4720747 -1.81977,-0.5858667 -0.26883,-0.03851 -1.284251,-0.049344 -1.593985,-0.017007 -0.2818091,0.029421 -0.4310877,0.048906 -0.5085912,0.066383 -0.037801,0.00852 -0.105842,0.021191 -0.1512028,0.028148 -0.1829259,0.028057 -0.5794708,0.1273831 -0.6116838,0.1532139 -0.0189,0.015156 -0.034364,0.02064 -0.034364,0.012187 0,-0.016781 -0.4448577,0.1288024 -0.5012871,0.1640499 -0.019137,0.011954 -0.048043,0.023755 -0.064236,0.026225 -0.042927,0.00655 -0.4284157,0.1775871 -0.4928965,0.2186952 -0.090431,0.057652 -0.287511,0.099132 -0.377299,0.079412 C 7.4695937,5.4431962 7.3460357,5.3410801 7.1440401,5.1396176 6.7961309,4.7926264 6.3826199,4.4543492 5.9381443,4.1531208 5.5077207,3.8614156 5.0335623,3.5738832 4.9829468,3.5738832 c -0.06612,0 -0.032695,1.0821191 0.047552,1.5395189 0.08233,0.4692706 0.2185116,0.9884943 0.3713369,1.4158075 0.2364917,0.6612531 0.222155,0.5968935 0.1658226,0.7443973 C 5.5345916,7.3601905 5.4355687,7.4920506 5.2718449,7.6675151 4.8730942,8.0948599 4.6341306,8.4912335 4.468044,9.0007948 4.3392467,9.3959505 4.3032701,9.6351362 4.3043118,10.089347 c 0.00271,1.181309 0.5419733,2.139916 1.6476648,2.928921 0.091253,0.06512 0.1832042,0.122439 0.2043349,0.127383 0.02113,0.0049 0.060909,0.03045 0.088395,0.05667 0.1034708,0.09873 1.0642997,0.543634 1.2539863,0.580651 0.026234,0.0051 0.078627,0.02207 0.1164272,0.03767 0.066754,0.02755 0.4368002,0.135074 0.5583145,0.162232 0.086493,0.01933 0.1086169,0.02521 0.1702078,0.04521 0.030241,0.0098 0.085911,0.02319 0.1237114,0.0297 0.037801,0.0065 0.1219381,0.0262 0.1869718,0.04375 0.065034,0.01756 0.1578174,0.03715 0.2061855,0.04355 0.1560388,0.02064 0.4036355,0.09389 0.4746692,0.140434 0.1122983,0.07358 0.2149121,0.275253 0.2149121,0.422379 0,0.156904 -0.1113938,0.362768 -0.2395463,0.442701 -0.07226,0.04507 -0.1224636,0.05241 -0.2933642,0.04286 -0.113402,-0.0063 -0.2247422,-0.01839 -0.2474226,-0.02679 -0.057412,-0.02127 -0.3266013,-0.07445 -0.3510453,-0.06935 -0.011049,0.0023 -0.038645,-0.0033 -0.061326,-0.01238 -0.02268,-0.0091 -0.2082474,-0.05975 -0.4123711,-0.112517 C 5.8258449,14.424564 4.2889889,13.242012 3.6834546,11.693315 3.1858315,10.420609 3.3135621,8.9575068 4.0286856,7.7388316 4.1597108,7.5155461 4.2489748,7.3888676 4.489691,7.0846004 L 4.5670109,6.9868674 4.4415123,6.5971208 C 4.3130865,6.1982843 4.1651827,5.5221963 4.0778364,4.9347079 4.0416784,4.6915115 4.0288434,4.4386351 4.0289988,3.9725086 4.0291912,3.4253317 4.0372767,3.303382 4.0891324,3.0666802 4.1928723,2.593144 4.3660701,2.3289495 4.5973724,2.2914143 4.7055384,2.2738614 4.8545256,2.3424611 5.447614,2.6828994 6.2265122,3.1299943 6.9367838,3.6362279 7.4960014,4.1428518 l 0.224524,0.2034076 0.1741014,-0.073127 c 0.095756,-0.04022 0.1802873,-0.081015 0.1878474,-0.090655 0.00756,-0.00964 0.026117,-0.017884 0.041237,-0.018319 0.01512,-4.346e-4 0.1821306,-0.051936 0.3711341,-0.1144477 0.1890034,-0.062512 0.3993127,-0.1277151 0.4673539,-0.1448969 0.068041,-0.017182 0.1422681,-0.038441 0.1649485,-0.047242 0.02268,-0.0088 0.072539,-0.02016 0.1107967,-0.025241 0.038258,-0.00508 0.1619692,-0.029101 0.2749141,-0.053378 0.2238952,-0.048125 0.2416324,-0.050728 0.6452175,-0.094686 0.28172,-0.030685 1.373733,-0.041803 1.53318,-0.01561 0.04885,0.00802 0.156854,0.019806 0.240015,0.026182 0.343683,0.026351 0.974161,0.1847581 1.454057,0.3653308 0.145286,0.054667 0.27962,0.099576 0.298521,0.099796 0.0189,2.2e-4 0.03436,0.00921 0.03436,0.019975 0,0.010766 0.03716,0.034966 0.08257,0.053777 0.08204,0.033983 0.08441,0.032353 0.368281,-0.2539383 0.441811,-0.4455739 1.052393,-0.9260488 1.720966,-1.3542506 0.158763,-0.101683 0.331959,-0.2132728 0.38488,-0.2479774 0.285517,-0.1872369 0.523356,-0.064968 0.749561,0.3853348 0.17522,0.3488095 0.213482,0.6144407 0.214848,1.4915728 0.0012,0.7829253 -0.03849,1.3019296 -0.169397,2.213923 l -0.08203,0.5714749 0.163058,0.5006901 c 0.339405,1.0421891 0.400806,1.4009825 0.400896,2.3426141 8.2e-5,0.786095 -0.02831,0.997053 -0.207178,1.539518 -0.108783,0.329925 -0.396898,0.910919 -0.584651,1.178975 -0.61107,0.872424 -1.551456,1.58944 -2.780642,2.120154 -0.441223,0.190503 -0.438011,0.188778 -0.448247,0.240723 -0.0046,0.0234 0.16325,0.269499 0.373027,0.546881 0.751373,0.993524 1.448599,2.124204 1.915243,3.10592 0.395254,0.831529 0.457879,1.361235 0.236514,2.000524 -0.209265,0.604343 -0.726064,1.124427 -1.339952,1.348468 -0.314641,0.11483 -0.598035,0.147619 -0.961817,0.111283 -0.420841,-0.04203 -0.427624,-0.04298 -1.066864,-0.149355 -1.174579,-0.19545 -2.181538,-0.238088 -3.2577318,-0.137944 -0.068041,0.0063 -0.1979382,0.01836 -0.2886598,0.02673 -0.137972,0.01273 -0.4176173,0.04719 -0.6597938,0.08129 -0.5565526,0.07838 -0.7329031,0.104999 -1.4707904,0.222036 -0.7456201,0.118263 -0.9007731,0.124958 -1.2238095,0.05281 z"
     id="path251" />
</svg>
