<?xml version="1.0" encoding="UTF-8" standalone="no"?>
<svg
   width="24"
   height="24"
   version="1.1"
   id="svg4"
   sodipodi:docname="loading.svg"
   inkscape:version="1.1 (c68e22c387, 2021-05-23)"
   xmlns:inkscape="http://www.inkscape.org/namespaces/inkscape"
   xmlns:sodipodi="http://sodipodi.sourceforge.net/DTD/sodipodi-0.dtd"
   xmlns="http://www.w3.org/2000/svg"
   xmlns:svg="http://www.w3.org/2000/svg">
  <defs
     id="defs8" />
  <sodipodi:namedview
     id="namedview6"
     pagecolor="#ffffff"
     bordercolor="#666666"
     borderopacity="1.0"
     inkscape:pageshadow="2"
     inkscape:pageopacity="0.0"
     inkscape:pagecheckerboard="0"
     showgrid="false"
     inkscape:zoom="36.375"
     inkscape:cx="12"
     inkscape:cy="12"
     inkscape:window-width="2560"
     inkscape:window-height="1377"
     inkscape:window-x="-8"
     inkscape:window-y="-8"
     inkscape:window-maximized="1"
     inkscape:current-layer="svg4" />
  <path
     d="M12.432 8.42a2.203 2.203 0 0 1-2.196-2.21c0-1.22.983-2.21 2.196-2.21s2.196.99 2.196 2.21a2.208 2.208 0 0 1-2.196 2.21zm-4.677 1.756a2.014 2.014 0 0 1-2.007-2.02c0-1.116.899-2.02 2.007-2.02 1.109 0 2.007.904 2.007 2.02a2.017 2.017 0 0 1-2.007 2.02zm-1.984 4.569a1.77 1.77 0 0 1-1.636-1.1 1.79 1.79 0 0 1 .384-1.944 1.763 1.763 0 0 1 1.93-.385 1.783 1.783 0 0 1 1.093 1.648 1.78 1.78 0 0 1-1.771 1.78zm1.985 4.523c-.83 0-1.501-.676-1.501-1.51 0-.835.672-1.51 1.5-1.51.83 0 1.501.675 1.501 1.51a1.509 1.509 0 0 1-1.5 1.51zm4.676 1.729c-.723 0-1.31-.59-1.31-1.318 0-.728.587-1.317 1.31-1.317.723 0 1.309.59 1.309 1.317 0 .728-.586 1.318-1.31 1.318zm4.745-2.227a1.062 1.062 0 0 1-1.058-1.066c0-.588.474-1.065 1.058-1.065a1.065 1.065 0 0 1 0 2.131zm1.943-4.926a.871.871 0 0 1-.868-.874c0-.483.389-.874.868-.874a.876.876 0 0 1 .614 1.492.865.865 0 0 1-.614.256zM16.502 8.22a.675.675 0 0 1 1.3-.263c.123.3.02.645-.249.826a.675.675 0 0 1-1.052-.563z"
     fill="#979797"
     id="path2"
     style="fill:#808080" />
</svg>
